<svg id="Layer_1" data-name="Layer 1" xmlns="http://www.w3.org/2000/svg" viewBox="0 0 135.45 72.92"><defs><style>.cls-1{fill:#683e21;}.cls-2{fill:#e8c472;}.cls-3{fill:#ef7965;}.cls-4{fill:#9bb57f;}</style></defs><title>veggieswap</title><path class="cls-1" d="M380.68,271.4c-1,0-5.46.07-10,.15s-12.78.05-18.33-.06-12.23-.17-14.84-.15-9.44-.09-15.19-.24-13.42-.25-17.1-.21c-8.18.09-30.54.09-42,0-4.92,0-5,0-5.08.46s.05.55.53.69c1,.3,29.12.59,46.48.48,4,0,12.63.05,19.14.17s13.76.2,16.12.17,7.38,0,11.14.1c6.17.13,24.95,0,29.94-.24,1.68-.08,2-.16,2.08-.53s-.31-.86-.86-.81l-2.09,0Z" transform="translate(-251.85 -204.17)"/><path class="cls-1" d="M367.21,274.43c-2.42,0-9.83-.09-16.46-.22s-13.94-.21-16.24-.19-8.35-.06-13.45-.19-12.57-.21-16.59-.18c-13.39.08-21,.18-24,.3-1.66.07-7.27-.05-12.46-.27-8-.33-9.44-.33-9.45-.06s.52.39,2.23.58c2.84.34,18.35.71,21.74.53,1.41-.08,6.11-.15,10.45-.17s9.67-.06,11.84-.1,9.46,0,16.24.17,14.26.23,16.7.21,9.24.05,15.13.17,11.59.17,12.64.13,5.4,0,9.66.09c5.89.12,7.77.09,7.86-.14s-8.15-.67-15.81-.66Z" transform="translate(-251.85 -204.17)"/><path class="cls-1" d="M354.75,275.68l-15.68.28c-14.95.25-19.05.27-23.48.09-2.19-.09-6.59-.16-9.75-.16-12.57,0-20.32-.07-29.29-.24-8.23-.15-17.81,0-18.79.31-.21.06-.26.17-.13.31a16.62,16.62,0,0,0,4,0c2.11-.1,8.73-.09,14.73,0s14.18.24,18.21.27,12.54.16,18.93.28,12.35.22,13.22.19,6.45-.13,12.39-.21l17-.25c3.39-.05,8.95,0,12.32.16,9.94.4,16.64.42,16.66,0s-22.62-1.27-30.35-1.14Z" transform="translate(-251.85 -204.17)"/><path class="cls-2" d="M290.77,263.08a1.83,1.83,0,0,0-.43.24c-.71.48-.55,2.2.21,2.23.38,0,.41-.11.33-1.21C290.83,263.67,290.78,263.1,290.77,263.08Z" transform="translate(-251.85 -204.17)"/><path class="cls-2" d="M279.58,262.23c.07.08.25-.06.41-.33.34-.57.23-.64-.22-.15C279.61,261.93,279.52,262.15,279.58,262.23Z" transform="translate(-251.85 -204.17)"/><path class="cls-2" d="M278,261.65c.05.56.1.6.48.35a.6.6,0,0,0,.27-.8C278.47,260.48,277.89,260.84,278,261.65Z" transform="translate(-251.85 -204.17)"/><path class="cls-2" d="M326.92,243c-.62-.56-.91-.63-2.48-.69-1.79-.06-3.73.28-8.21,1.46-2.39.63-2.35.58-2.06,2.39.21,1.32-.38,1-.73-.42-.28-1.13-.39-1.23-.94-.92-.22.12-.27.46-.19,1.25s.06,1.08-.21,1.07-.37-.34-.43-1a4.73,4.73,0,0,0-.16-1c-.12-.11-19,4.51-22.35,5.48-3.78,1.09-10.14,3.19-13.57,4.48l-2.59,1,.09,1.26c.1,1.3-.28,1.76-.49.58-.27-1.58-.49-1.57-.52,0,0,.93-.13,1.63-.27,1.67s-.49-1-.45-2.07c0-.37-.07-.68-.18-.68a12.69,12.69,0,0,0-3.61,2.41,4.2,4.2,0,0,0-.27,3.54,8.51,8.51,0,0,0,1.06,1.71l.78,1,6.35.19c5.89.17,13.24,0,13.56-.25a3.77,3.77,0,0,0,0-1.44l-.11-1.3-1.07.88c-.61.5-1.19.82-1.32.73a20.84,20.84,0,0,1,3.47-3.44c2.47-2.19,3.77-3.19,3.92-3s-.56.92-2.14,2.31c-2,1.73-2.34,2.12-2.16,2.48s.69,0,3.8-2.84c2-1.8,3.65-3.26,3.74-3.26.55,0-.16.85-2.81,3.3l-2.94,2.71,0,1.41,0,1.4,1,0c5.56.21,28.72-1.36,29.92-2,.22-.13.23-.58,0-2.12-.27-2-.08-2.81.48-2,.26.39.5.17,2.44-2.16a15.51,15.51,0,0,1,2.46-2.59c.38,0,.31.13-1.61,2.54L324.65,259l.1,1.64c.08,1.42,0,1.64-.29,1.63s-.37-.26-.33-1.33l.05-1.3-.5.42c-.42.35-.5.61-.45,1.64a4.69,4.69,0,0,0,.19,1.36c.27.29,4.34-1.84,5.38-2.82s1.09-1.05,1.24-2.81c.12-1.45,0-2.64-.7-6.45C328.34,245.48,327.84,243.84,326.92,243Zm-42.2,12.05c0-.86.13-1.58.24-1.57.37,0,.58,4.25.22,4.41S284.68,257,284.72,255.06ZM283,253.6c.31-.45.51,0,.69,1.46.26,2.15.24,2.74-.11,2.36A10.64,10.64,0,0,1,283,253.6Zm-13.81,10.23c-.15-.16.45-.76,1.76-1.79,1.11-.87,2.26-1.82,2.58-2.14s.67-.5.82-.34,0,.61-2.69,2.72C270.22,263.46,269.37,264,269.23,263.83Zm2.56-.72a38.8,38.8,0,0,0,3.15-2.34c1.49-1.24,2.06-1.5,1.76-.79s-5.86,4.77-6.37,4.75S270.36,264,271.79,263.11Zm7.12.23c.1-.44.09-.81,0-.81-.36,0-.79.5-.81,1,0,.3-.13.39-.38.29s-.7.1-1.23.5c-.83.64-1.47.85-1.45.48a5,5,0,0,1,1.2-1.06c1.24-.92,1.28-1,1.08-1.56-.1-.3-.42-.15-1.59.77-.82.63-1.67,1.29-1.9,1.48s-.49.25-.64.09.29-.63,1.27-1.38c.82-.62,2.09-1.64,2.8-2.25a8.6,8.6,0,0,1,1.45-1.12,1.94,1.94,0,0,1,.47.75l.31.75,1.47-1.26a12.49,12.49,0,0,1,1.6-1.24c.36,0,0,.69-1,2a9.44,9.44,0,0,0-1.09,1.65,14,14,0,0,0,2.33-1.8,24.35,24.35,0,0,1,2.53-2c.48,0-.1.61-2.77,3C279.42,264.37,278.58,264.77,278.91,263.34Zm3.1.56c0-.07,1.4-1.47,3.08-3.1a22.82,22.82,0,0,1,3.26-2.84c.32.21.14.43-2.84,3.32C283,263.69,282,264.47,282,263.9Zm6.37-3c-2.59,2.41-3.59,3.15-3.57,2.65,0-.08,1.39-1.43,3.08-3,2-1.85,3.15-2.79,3.28-2.64S290.3,259.16,288.38,260.93Zm6.63-8.2c-.25,0-.45-.83-.41-1.73,0-.42.13-.61.32-.54S295.35,252.75,295,252.73Zm1.82.4c-.26.24-.32.06-.61-1.72a3.85,3.85,0,0,1-.05-1.46c.26-.39.5.13.71,1.58C297,252.42,297,253,296.83,253.13Zm27.31-8c.37,0,.7.8,1,2.36.24,1.36.24,1.41-.12,1.39-.18,0-.42-.61-.6-1.47a17.62,17.62,0,0,0-.46-1.88C323.84,245.2,323.9,245.08,324.14,245.08Zm-1.16.72c.15-.34.2-.35.35-.05.28.54.26,3.72,0,3.72S322.73,246.37,323,245.8Zm-18.56,5.68c.35,0,.5.67.55,2.44,0,.54-.09.94-.25,1-.32.1-.43-.32-.56-2.11C304.08,251.7,304.13,251.47,304.42,251.48Zm-1.35.65c.39,0,.79,3.6.42,3.8s-.46-.09-.56-2C302.87,252.72,302.91,252.12,303.07,252.13Zm-9.83,10.69c-.31.18-.62.25-.7.15s.59-.78,1.52-1.53,2.69-2.26,3.94-3.39c2.19-2,3-2.41,2.32-1.28A70.93,70.93,0,0,1,293.24,262.82Zm5.43-.71c.61-.5.83-.85.74-1.13-.2-.6-.52-.53-.83.18-.14.32-.32.52-.4.45s-.67.3-1.32.84a5.77,5.77,0,0,1-1.4,1c-.51,0,0-.67,1.16-1.58s1.28-1.08,1.19-1.62c-.13-.77.35-1.07.58-.37.13.4.22.45.38.21a1.91,1.91,0,0,0,.18-.95c0-.68.38-.88.59-.3.08.23.59-.15,1.65-1.22a12.55,12.55,0,0,1,1.72-1.56c.56,0,.12.67-1.42,2.16-1.27,1.22-1.71,1.81-1.67,2.18s.72-.12,3.89-3.19a31.32,31.32,0,0,1,4-3.58c.12.08-.06.45-.42.86-1.22,1.36-9.1,8.84-9.31,8.84C297.58,263.28,297.83,262.82,298.67,262.11Zm2.26,1.07c-.56,0-.36-.33,1-1.59.74-.67,2.33-2.3,3.53-3.62s2.22-2.41,2.27-2.41.13.09.2.22C308.21,256.21,301.55,263.2,300.93,263.18Zm3-.81c-.46,0-.29-.24,1-1.33a29.06,29.06,0,0,0,2.86-2.89,11.67,11.67,0,0,1,1.77-1.82c.49,0,0,.83-1.83,2.81S304.45,262.39,303.91,262.37Zm5-2.68c1.85-1.68,2.75-2.36,2.82-2.13.13.42-4.95,5-5.3,4.77C306.24,262.23,307.23,261.18,308.87,259.69Zm3.05,3.47c.07.74,0,.93-.26.92-.43,0-.54-.31-.7-1.75-.18-1.68-.65-1.21-.64.65,0,1.18-.07,1.52-.3,1.43s-.31-.41-.34-.79c-.07-1.18-.16-1.3-.7-1-.76.43-.83,0-.11-.72.4-.38.6-.77.52-1-.15-.45.36-.79.59-.4s1.71-1.13,4.67-4.36c1.68-1.83,1.85-2.11,1.76-2.76s0-.72.26-.71a.42.42,0,0,1,.35.47.76.76,0,0,0,.16.57c.24.16,0,2.23-.3,2.22s-.2-.17-.19-.38c0-.63-.39-.29-2.74,2.24-1.65,1.76-2.31,2.63-2.33,3.08s.05.69.16.76,2.58-2.09,4.81-4.6l1.55-1.74-.21-1.19a12.08,12.08,0,0,1-.19-1.51.34.34,0,0,1,.36-.32c.22,0,.38.34.45.94.12,1,.37,1.37.6.84s.64-.43.62,0a2.33,2.33,0,0,1-.48.83,1.31,1.31,0,0,0-.36.85,1,1,0,0,1-.05.67c-.11.28-.22.3-.44.11s-.61.1-1.74,1.36c-2.12,2.37-4.24,4.4-4.57,4.39S311.85,262.48,311.92,263.16Zm2.72-1.06c-.47,0-.36-.33.34-.93a90.9,90.9,0,0,0,6.3-7c.86-1.15,1.56-1.62,1.54-1C322.79,253.87,315.25,262.13,314.64,262.1Zm3-.8c-.48,0-.11-.52,1.86-2.5,1.15-1.16,3-3.13,4.08-4.41,1.93-2.24,2.33-2.59,2.31-2S318.17,261.32,317.62,261.3Zm6.94-4.8c-3.69,4-4.52,4.77-4.68,4.5a15.92,15.92,0,0,1,2.67-3.25c1.55-1.63,3.05-3.27,3.33-3.6a2,2,0,0,1,.66-.62C327.12,253.56,326.68,254.21,324.56,256.5Z" transform="translate(-251.85 -204.17)"/><path class="cls-3" d="M263.72,258.32c-2.81.56-2.62.55-2.61.17s2.94-.93,6.26-1.42a2,2,0,0,0,1.06-.46c.29-.33,0-.36-3-.37-2.46,0-3.3-.07-3.22-.25.13-.35,2.48-.52,5.28-.39s2.78.13,2.79-.1a5,5,0,0,0-1.76-.55c-2.9-.6-4-.91-4-1.15s.84-.22,4,.52c2.3.54,3.08.64,3.58.47l.64-.21-.58-.22c-.31-.13-1.47-.53-2.57-.91a6.31,6.31,0,0,1-2-.89c0-.35.42-.26,3.31.69,2.18.72,2.83.86,3.38.69.38-.11.64-.28.58-.38a13.75,13.75,0,0,0-2.46-.92,16.8,16.8,0,0,1-2.55-.95c-.58-.57.43-.42,3.2.48s3.17,1,3.83.75l.73-.26-2.25-.89a18.45,18.45,0,0,1-2.45-1.1c-.56-.58.31-.41,2.9.57s2.92,1,3.61.83c1-.29.83-.4-2-1.46a16.52,16.52,0,0,1-2.37-1c-.59-.6.38-.39,3.2.68s3.17,1.16,3.82.91l.72-.27-2.43-1.11a16.21,16.21,0,0,1-2.55-1.32c-.3-.53.38-.34,3,.85s2.91,1.28,3.74,1l.87-.28-2.24-1.15a21.71,21.71,0,0,0-2.45-1.17c-.12,0-.2-.17-.19-.38,0-.45.38-.32,3.36,1.22l2.34,1.22,1.07-.32,1.07-.32-2.12-1.07c-1.16-.59-2.62-1.32-3.24-1.61s-1.05-.62-.87-.78,1.16.22,3.07,1.18c3.62,1.82,4.18,2,4.8,1.78.43-.17.18-.35-1.85-1.31-4.12-2-4.8-2.33-4.56-2.56s7.18,3,7.3,3.38.67.24.81-.22c.09-.3,0-.46-.19-.47a23.87,23.87,0,0,1-5.09-2.74c0-.38.22-.31,2.86,1A27,27,0,0,0,291.9,247a48.3,48.3,0,0,0-1.22-6.74,14.58,14.58,0,0,0-5.81-7.52,6.59,6.59,0,0,0-3.54-.86,15.69,15.69,0,0,0-6.63.92c-1.68.55-3.22.55-6.45,0-5.9-1-8.59,0-11.63,4.23-2.63,3.68-3.52,7-3.32,12.47.15,4,.64,6.23,1.81,8.4a10.15,10.15,0,0,0,4.34,4.47,7.34,7.34,0,0,0,3.71,1.13c2.25.23,2.5.13,2.29-.87l-.12-.59-1.14.65c-1.25.71-1.42.75-1.39.34,0-.16.62-.63,1.33-1s1.26-.78,1.2-.85a4.42,4.42,0,0,0-1.43.67,7.6,7.6,0,0,1-1.56.77c-.58,0-.07-.51,1.42-1.37s2.17-1.59,1.89-1.91a10.19,10.19,0,0,0-1.8.68,7,7,0,0,1-2.1.66c-.51-.13.49-.71,2.73-1.58C267.7,257.8,267.46,257.57,263.72,258.32Zm26.83-13.43c-.6,0-2.65-1.27-2.49-1.51s.22-.28,1.47.42S291.15,244.92,290.55,244.89Zm-.81-5.83a16.81,16.81,0,0,1-1.4,2.68s-.18,0-.32-.07,0-.63.51-1.5C289.21,239,289.76,238.44,289.74,239.06Zm-2.89,1a8.25,8.25,0,0,1,1.51-2.43c.39,0,.22.48-1.15,3.14a7.17,7.17,0,0,1-1.34,2.08C285.5,242.84,285.56,242.68,286.85,240.06Zm-.55-1.95a42.12,42.12,0,0,1-2.91,5.89c-.64.8-.79.13-.2-.86.32-.52,1.06-2,1.64-3.16C285.84,237.91,286.33,237.28,286.3,238.11Zm-1.55-2c-.05,1.39-2.28,6.59-2.81,6.57-.35,0-.25-.4.39-1.56a22,22,0,0,0,1.71-4.55C284.34,235.55,284.79,235.27,284.75,236.12Zm-2.88,1.78c.3-.87.67-2.16.85-2.9s.42-1.3.57-1.24c.32.12.26.55-.46,3.19-.52,1.93-1.06,3-1.35,2.66A4.85,4.85,0,0,1,281.87,237.9Zm-1.12,5.51a7.11,7.11,0,0,1-1.69,2.59c-.44.12-.33-.23.5-1.62C280.3,243.16,280.79,242.76,280.75,243.41Zm-2.67.2c1-1.77,1.59-2.37,1.57-1.71a15.07,15.07,0,0,1-1.95,3.41C276.75,246.4,276.93,245.53,278.08,243.61ZM270.5,249c.4-.3.72-.39.86-.24s0,.43-.49.77a3.47,3.47,0,0,1-.88.53C269.59,250.1,269.87,249.5,270.5,249Zm-1.75.07c.12.13-.28.78-1,1.59s-1.24,1.28-1.37,1.15.5-1.23,1.65-2.44C268.36,249.09,268.63,249,268.75,249.1Zm-1.9-.52a6.79,6.79,0,0,1-1,1.39,18.15,18.15,0,0,0-1.63,2.4c-.42.77-.76,1.15-.89,1s-.11-.45.06-.84a25.79,25.79,0,0,1,2.68-3.81C266.5,248.29,266.86,248.23,266.85,248.58Zm-.37-14c0,.1-.18.28-.42.41l-1.31.72c-.68.39-.88.43-.87.17s.41-.6.89-.9C265.65,234.42,266.5,234.22,266.48,234.58Zm-2.61-.83c1-.64,1.28-.7,1.26-.27s-1.68,1.36-1.94,1.08S263.27,234.12,263.87,233.75Zm-4.11,2.32c1.08-1,1.85-1.44,1.83-1a16.53,16.53,0,0,1-1.66,1.74,18.22,18.22,0,0,0-2.24,2.55c-.52.84-1.2,1.26-1.18.72A19.08,19.08,0,0,1,259.76,236.07Zm-1.43,3.7c.39-.49,1.35-1.53,2.11-2.29a10.08,10.08,0,0,1,1.55-1.39c.57,0,.24.52-1.4,2.15a18.45,18.45,0,0,0-3.07,3.91c-1.07,1.84-1.65,2.48-1.62,1.79A21.25,21.25,0,0,1,258.33,239.77ZM255.17,250c-.35,0-.24-.49.71-3,1.18-3.07,2.35-4.78,5.33-7.8a7,7,0,0,1,1.45-1.24c.48,0,.09.61-1.39,2.08a19.27,19.27,0,0,0-4.94,7.39A10.45,10.45,0,0,1,255.17,250Zm.69,3c-.31-.12-.12-.93.77-3.26a23.64,23.64,0,0,1,4.23-7.35c1.54-1.89,2.16-2.42,2.13-1.84a16.14,16.14,0,0,1-1.6,2.16,24.46,24.46,0,0,0-4.36,7.78A9.1,9.1,0,0,1,255.86,253Zm1.06,3c-.13-.05-.18-.39-.13-.76a45.93,45.93,0,0,1,1.93-6.35,24.52,24.52,0,0,1,3.68-5.42c.89-.93,1.5-.89.71,0a38.42,38.42,0,0,0-3.57,5,33.65,33.65,0,0,0-1.49,4.33A11.09,11.09,0,0,1,256.92,256Zm1.8.83c-.16,1-.31,1.4-.54,1.39-.43,0-.21-1.44.72-4.61a19.4,19.4,0,0,1,3.78-7.09c1.27-1.57,1.86-2,1.76-1.39a17.58,17.58,0,0,1-1.53,2.14,24.68,24.68,0,0,0-2.07,3.06A28.41,28.41,0,0,0,258.72,256.82Zm1,2.15c-.39,0-.27-.75.69-3.89a17.2,17.2,0,0,1,3.38-6.48c.85-1,1.33-1.44,1.49-1.27s-.12.68-.86,1.55a24.64,24.64,0,0,0-1.73,2.32,26,26,0,0,0-2.3,6.27C260.21,258.46,260,259,259.77,259Z" transform="translate(-251.85 -204.17)"/><path class="cls-3" d="M350.91,256.78a1.08,1.08,0,0,0-.41-.2,19.36,19.36,0,0,0-1.63,3.86s.27,0,.51-.15C350,260,351.29,257,350.91,256.78Z" transform="translate(-251.85 -204.17)"/><path class="cls-3" d="M348.18,255.51c-.8-.56-.94-.33-3.81,6.3-.14.34,1,.18,1.29-.18a33.74,33.74,0,0,0,1.49-3.09C348,256.55,348.35,255.64,348.18,255.51Z" transform="translate(-251.85 -204.17)"/><path class="cls-3" d="M349.55,256a1.24,1.24,0,0,0-.38-.21,52,52,0,0,0-2.55,5.54c0,.11.27.06.62-.11s.83-.79,1.61-2.66S349.75,256.18,349.55,256Z" transform="translate(-251.85 -204.17)"/><path class="cls-3" d="M346.05,254.78c-.44-.19-.57,0-1.83,3s-1.63,3.6-1.92,3.29a23.1,23.1,0,0,1,1.29-3.39l1.41-3.26-.61-.19a1.07,1.07,0,0,0-.75,0c-.08.09-.59,1.4-1.13,2.91a24.1,24.1,0,0,1-1.18,2.94c-.56.54-.4-.32.56-3a17.46,17.46,0,0,0,.95-3.12.6.6,0,0,0-.46-.2c-.35,0-.42.12-1.77,3.52a17,17,0,0,1-1.11,2.49c-.62.56-.42-.37.63-3l1.16-2.86-.61,0a1.89,1.89,0,0,0-.85.14,14.91,14.91,0,0,0-1.15,2.85c-.56,1.68-1,2.69-1.2,2.68-.38,0-.4.08.51-2.58s1-2.9.24-2.79-.68.2-1.57,3.34c-.3,1.08-.6,1.74-.79,1.74-.37,0-.37,0,.38-2.52a13.48,13.48,0,0,0,.56-2.27c-.22-.24-1.06.23-1.07.6a.79.79,0,0,1-.23.56,6.41,6.41,0,0,0-.68,1.84c-.43,1.63-.73,2.18-1,1.75a5.16,5.16,0,0,1,.25-1.5l.36-1.3-.66.32a2.34,2.34,0,0,0-1.1,1.46c-.46,1.21-1,1.57-.76.48a10.54,10.54,0,0,1,.32-1c.12-.27.05-.4-.19-.41s-.42.27-.53.85-.23,1.06-.29,1.32.23.58,2.91,1.5a17.68,17.68,0,0,0,5.91,1.24c2.18.16,3,.14,3.28-.09a50.15,50.15,0,0,0,3.08-6.77C346.5,255.11,346.33,254.9,346.05,254.78Z" transform="translate(-251.85 -204.17)"/><path class="cls-3" d="M351.65,257.42a8.42,8.42,0,0,1-.4,1c-.4.84-.4.85,0,.55.86-.62,1.28-1.21,1-1.4S351.66,257.27,351.65,257.42Z" transform="translate(-251.85 -204.17)"/><path class="cls-3" d="M325.25,240.67c.72,0,.75-.08,1.06-1.42.18-.76.34-1.42.35-1.48s.13,0,.26.15.15.64-.06,1.61c-.26,1.2-.25,1.4.09,1.68s.42.22.6-.68a16.81,16.81,0,0,0,.26-2.09c0-.81.14-1.09.39-1.08s.3.38.11,2.27c-.21,2.16-.06,3.3.44,3.32a17.77,17.77,0,0,0,.86-3.4c.73-3.66.8-3.89,1.12-3.55a49.64,49.64,0,0,1-1.38,7.83c-.1.35,0,.53.16.54.8,0,1.11-.65,2.32-5a41.38,41.38,0,0,1,1.45-4.65c.53-.49.37.48-.74,4.45-.65,2.34-1.19,4.32-1.2,4.42s.25.18.55.19c.51,0,.63-.18,1.25-2,1.45-4.26,2.78-7.61,3-7.6s.13.74-1.39,4.91c-.72,2-1.29,3.67-1.25,3.71a2.77,2.77,0,0,0,.77-.53c.57-.48.95-1.27,1.89-4,.77-2.23,1.28-3.38,1.48-3.37.37,0,.36,0-.88,3.5a10.35,10.35,0,0,0-.73,2.47,2.45,2.45,0,0,0,.78-.61,7.92,7.92,0,0,0,1.36-3.07,11.36,11.36,0,0,1,.92-2.46c.4,0,.36.41-.2,2.22l-.6,1.95.67-.59a7.89,7.89,0,0,0,1.39-2.16c.39-.87.84-1.57,1-1.56.37,0,.36.08-.08,1a2.51,2.51,0,0,0-.29.8,10.73,10.73,0,0,0,.87-1c.91-1.19.89-1.24-1-1.88a16.22,16.22,0,0,0-7-.16,21.78,21.78,0,0,0-3.84,1.38,6.88,6.88,0,0,0-3.22,2.34,8,8,0,0,0-1.09,1.57,2.54,2.54,0,0,1-.62.9C324.31,240.47,324.34,240.73,325.25,240.67Z" transform="translate(-251.85 -204.17)"/><path class="cls-4" d="M291.52,229.12a1.53,1.53,0,0,0,.75-1c0-.3-.06-.53-.15-.54a30.13,30.13,0,0,0-2.79,2.13c-2.38,1.94-2.58,2.16-2.21,2.45s.59.15,2-1.1C290.05,230.26,291.12,229.39,291.52,229.12Z" transform="translate(-251.85 -204.17)"/><path class="cls-4" d="M270.22,230.48l-.81-1.15c-.44-.62-.74-1.26-.65-1.39s.59.23,2,2.14l.69.94-.18-1.06a4.54,4.54,0,0,0-3.27-3.84,8,8,0,0,0-1.86-.29l-1.05,0,1.57,1.54c.87.87,2,1.9,2.56,2.34Z" transform="translate(-251.85 -204.17)"/><path class="cls-4" d="M274.81,228.76a9.3,9.3,0,0,1,1.54-1.84c.41,0,.13.63-.94,2.1a13.1,13.1,0,0,0-1.11,1.65c0,.07.44-.09,1-.36,1.65-.84,3.82-4,3.89-5.76,0-.49-.49-.36-1.64.41a12.12,12.12,0,0,0-3.67,3.86C272.94,230.71,273.44,230.68,274.81,228.76Z" transform="translate(-251.85 -204.17)"/><path class="cls-4" d="M379.86,245.62c-3.94,1.46-11.38,2.06-25.61,2-3.32,0-7.34.1-8.94.22a47.84,47.84,0,0,0-9.24,1.71c-1.58.6-.84.75,1.45.3,4.61-.9,10.27-1.33,11-.84.49.35.07.42-2.78.48-3.84.09-10.26,1.16-10.28,1.73,0,.38-.07.38,1.88-.08,2.13-.5,4.41-.68,4.4-.34s-.41.39-1.88.54a18.34,18.34,0,0,0-4.05.89.32.32,0,0,0-.09.4c.08.14.93.1,2.19-.12,3.6-.6,5.29-.58,7.47.08a71.82,71.82,0,0,1,8.27,3.24c3.07,1.44,8.68,2.85,10.13,2.55a4.9,4.9,0,0,0,1.64-1.09,6.14,6.14,0,0,1,5.26-1.52,5.39,5.39,0,0,1,3,1.05,6.86,6.86,0,0,0,4.54,1.48,2.84,2.84,0,0,0,2.57-1,7.36,7.36,0,0,0,1.79-2.58,11.55,11.55,0,0,1,1.72-2.7c.55-.6,1-1.2.91-1.31a15.74,15.74,0,0,0-3.37-.33c-2.5-.1-3.22-.2-3.13-.42s1-.25,3.39-.15,3.28.05,3.29-.15c0-.47-.84-.6-3.57-.54-1.79,0-2.67,0-2.67-.17,0-.43.7-.51,3.41-.4a13.17,13.17,0,0,0,2.64,0c0-.48-.91-1.65-1.87-2.37C381.8,245.07,381.48,245,379.86,245.62Zm-28.62,3c5.36,0,5.87.05,5.86.41s-.5.32-2.88.23c-1.58-.06-3.35-.07-3.94,0-.91.09-1.09,0-1.07-.26S349.57,248.67,351.24,248.67Zm-2.82,3.89c-1.23-.05-2.36-.34-2.35-.61s3.08,0,3.18.34S349,252.58,348.42,252.56Zm-1.5-1.46c-3-.12-3.59-.19-3.58-.49s.57-.32,3.61-.2,3.59.2,3.57.49S350,251.23,346.92,251.1Zm8.84,3.9a43.52,43.52,0,0,1-5.53-1.34.23.23,0,0,1-.15-.34.69.69,0,0,1,.65-.1C355.35,254.37,356.31,254.71,355.76,255Zm-1.45-4.17c-.18-.08-.25-.24-.17-.37.21-.31,4.43,0,4.34.3A11.89,11.89,0,0,1,354.31,250.83Zm7.62.39c-.72,0-1-.1-1-.35s.38-.35,1.45-.36c1.81,0,1.83,0,1.86.25S363.27,251.23,361.93,251.22Zm2.86-1.85c-2.89.28-7,.21-7-.13a5.61,5.61,0,0,1,2.06-.26,81.26,81.26,0,0,0,9.12-.7l2.39-.35c.1,0,.17.12.17.31C371.5,248.58,369.49,248.92,364.79,249.37Zm3.8,1.27c-1.68.05-.87-.43,1.4-.84,2.78-.5,2.94-.51,2.8-.14S370,250.59,368.59,250.64Zm5.42,1.55c1.32.06,2.21.18,2.21.32s-.86.2-2.09.15a6,6,0,0,1-2.2-.32C371.85,252.19,372.6,252.14,374,252.19Zm1.3,2.06c-2.08-.25-2.49-.37-2.27-.71a3,3,0,0,1,1.44,0c2.15.27,2.84.45,2.83.73S376.7,254.41,375.31,254.25Zm9-6.54c0,.19-2,.34-4.63.34-1.39,0-1.93-.49-.65-.6C380.56,247.33,384.31,247.51,384.3,247.71Zm-1.81-1.23c0,.12-.51.27-1.11.32l-1.87.18c-.56.07-.75,0-.74-.26s.29-.37.78-.41C381.07,246.18,382.5,246.26,382.49,246.48Z" transform="translate(-251.85 -204.17)"/><path class="cls-4" d="M285.89,224.64c1.16-1.49,4.16-3.48,3.79-2.52a5.75,5.75,0,0,1-1.25,1c-1.72,1.2-3.51,3.37-3.39,4.12.08.55.18.5,1.82-1.06s3.56-2.92,4.14-2.9.31.43-.55.88c-2.87,1.55-6.19,5.31-5.25,5.95.1.06.68-.42,1.31-1.09,1.48-1.59,4.93-4,5.24-3.64.13.14.19.3.13.34l-1.17.74c-2.55,1.57-5.32,4.31-4.86,4.81.18.19.62-.07,1.63-1,.76-.67,2.15-1.78,3.08-2.47,1.65-1.22,1.71-1.3,2-2.7a27.2,27.2,0,0,1,.84-2.68,3.51,3.51,0,0,0,.37-1.36,7.25,7.25,0,0,0-1.67-.27,5.5,5.5,0,0,0-2.92.38,7.45,7.45,0,0,0-3,1.76c-.67.57-1.5,2.26-1.24,2.53C285.06,225.61,285.45,225.2,285.89,224.64Z" transform="translate(-251.85 -204.17)"/><path class="cls-4" d="M331.82,255.65c.23-.22-.21-4-.93-7.79-.39-2.08-.48-2.3-.95-2.15-.18.06-.15.58.08,1.65.33,1.49,1.17,6.06,1.43,7.72C331.53,255.59,331.66,255.79,331.82,255.65Z" transform="translate(-251.85 -204.17)"/><path class="cls-4" d="M311.09,218.65l1,.63v-.74a6.68,6.68,0,0,0-.12-1.27l-.13-.53-.9.56a4.61,4.61,0,0,0-.89.64A6.33,6.33,0,0,0,311.09,218.65Z" transform="translate(-251.85 -204.17)"/><path class="cls-4" d="M331.89,245.21a.45.45,0,0,0-.46.1c-.09.14,1.71,9.56,1.89,9.87,0,0,.25,0,.5-.16.42-.2.45-.38.32-1.82a35.35,35.35,0,0,0-1-4.75C332.54,246.41,332.11,245.26,331.89,245.21Z" transform="translate(-251.85 -204.17)"/><path class="cls-4" d="M288.45,233.29c.41.33.56.26,2.16-1s1.74-1.48,1.78-2.11c0-.42,0-.76-.16-.77a14.62,14.62,0,0,0-2.22,1.76C288.11,232.85,288,233,288.45,233.29Z" transform="translate(-251.85 -204.17)"/><path class="cls-4" d="M339.63,240a21.79,21.79,0,0,0-2.09,1.93,93.35,93.35,0,0,0,8-6.24,14.17,14.17,0,0,1,2-1.68c.48,0,0,.65-1.59,2.18l-1.75,1.67,4.89-3.3c7.8-5.27,9-5.65,12.39-4,2.23,1.11,3.28,1.12,5,.08,1.26-.76,1.71-1.26.68-.76-.75.37-3.72.13-5.57-.45a13.24,13.24,0,0,0-2.37-.55c-.44,0-.64-.12-.56-.3.14-.37,2.23-.18,3.46.31a12.36,12.36,0,0,0,2.2.55,7.29,7.29,0,0,0,4.93-1.24c.52-.37.89-.5.93-.33s.75,0,1.93-.57a16,16,0,0,1,2.57-1c.85-.14.87-.24.32-1.47a3.19,3.19,0,0,0-1.34-1.45,6.84,6.84,0,0,0-4.53-.31,31.26,31.26,0,0,0-3.54,1.52c-2.9,1.41-3.19,1.43-8,.83-2.68-.34-3.56-.07-5.71,1.74a116.17,116.17,0,0,0-8.37,9A45.16,45.16,0,0,1,339.63,240Zm31.56-15.39c.5-.34,1.29-.38,1.28-.07,0,.1-.29.3-.62.44C371.07,225.24,370.58,225,371.19,224.56Zm.41,1.24c.83-.39,1.3-.43,1.28-.11s-1.85,1.12-2,.83S370.71,226.23,371.6,225.8Zm-3.55.7c1.26-.69,1.62-.77,1.62-.36s-2.46,1.62-3,1.61S366.43,227.39,368.05,226.5Zm-6.78.92c.42.1,1.6.28,2.67.39,2,.22,2.59.52,1.52.74s-5-.56-4.95-1.08C360.52,227.34,360.86,227.32,361.27,227.42Zm-9.4,4c-.26.17-1,.71-1.66,1.22-1.24.94-1.54,1.06-1.51.6a5.91,5.91,0,0,1,1.6-1.45c1.06-.77,1.67-1.08,1.82-.92S352.18,231.24,351.87,231.44Zm5.22-2.92c.13.21-2.94,2-3.4,2-.61,0-.15-.47,1.35-1.3C356.75,228.24,356.91,228.19,357.09,228.52Zm-2.54-1c1.26-.65,1.82-.78,1.8-.42a8.73,8.73,0,0,1-2.84,1.54C352.93,228.6,353.39,228.12,354.55,227.51Zm-4.79,3.07a13.48,13.48,0,0,1,2.52-1.54c.48,0,0,.48-1.74,1.76-2,1.47-2.7,1.83-2.84,1.56S348.54,231.43,349.76,230.58Z" transform="translate(-251.85 -204.17)"/><path class="cls-4" d="M384.19,233l-.9-.62-2.87,1.29c-1.92.85-2.95,1.2-3.09,1s.67-.64,2.47-1.44c1.49-.67,2.73-1.24,2.78-1.28s-.47-.89-1.93-2.76a6.14,6.14,0,0,0-1.38-1.32,4.62,4.62,0,0,0-1.75-.39c-2.5-.06-4.93.92-9.15,3.69a17.84,17.84,0,0,1-2.94,1.64A6.89,6.89,0,0,1,361,232c-2.84-1.42-3.43-1.18-12.83,5.13A101.91,101.91,0,0,1,335.22,245c-1.54.7-1.5.67-1.32,1s.44.1,1-.24a47.45,47.45,0,0,1,4.57-2.32c.36,0,.16.65-.24.78a37.18,37.18,0,0,0-5.05,2.77,9.5,9.5,0,0,0,2.38-.9,114.25,114.25,0,0,1,24.83-7.44c3.43-.53,4.32-.56,4.17-.15a15.16,15.16,0,0,1-3.72.87,71.65,71.65,0,0,0-9.57,2.07c-9,2.5-18.35,6-17.74,6.7a8.13,8.13,0,0,0,2.77-.81c3.79-1.51,10.21-3.18,10.6-2.76s-.09.4-3.13,1.09a29.25,29.25,0,0,0-3.13.81c-.08.08.12.09.45,0a92.78,92.78,0,0,1,12.2-.6c9.84,0,17.87-.36,21.27-.92a16.11,16.11,0,0,0,6.74-2.56,8.62,8.62,0,0,0,3.45-5.88A3.55,3.55,0,0,0,384.19,233Zm-4.6-.88c1.93-.66,2.7-.72,2.05-.16a16.61,16.61,0,0,1-3.93,1.35C376.92,233.28,377.78,232.74,379.59,232.12ZM347.86,238c1.66-.75,1.74-.77,1.92-.45s-2.49,1.52-3.07,1.5S346.4,238.64,347.86,238Zm-3.49,2.59c2.55-1.17,2.67-1.21,2.66-.79a19.2,19.2,0,0,1-4.74,2.32C341.57,242.07,342.34,241.51,344.37,240.57Zm8.06-1c-1.64.42-4.85,1.46-7.11,2.32-4.13,1.55-4.71,1.72-4.7,1.34s10.66-4.25,13.77-4.88c.82-.17,1.05-.13,1,.16S354.21,239.11,352.43,239.56Zm23.81-5a46.93,46.93,0,0,1-5.56,2.61c-.06,0-.11-.14-.1-.3a8.3,8.3,0,0,1,2.42-1.38C375.32,234.47,376.26,234.2,376.24,234.6Zm-5.61-.23c3.23-1.16,4.05-1.36,4-1a43,43,0,0,1-6.94,2.53C366.81,235.89,367.67,235.44,370.63,234.37Zm-4.86,7.74a12.31,12.31,0,0,1,3.14-.93c1.66-.35,3.51-.78,4.09-.94,1.33-.37,1.36-.37,1.52-.09s-.5.54-4,1.34C366.72,242.35,365.62,242.5,365.77,242.11Zm-5,.45c3-.35,3.38-.35,3.25,0a6.32,6.32,0,0,1-2.42.59c-2.87.38-3.12.38-3.11,0C358.5,242.92,359.21,242.74,360.77,242.56Zm-11,1.16c-.25-.28,0-.41,1.74-.79s2.87-.46,2.86-.14-.15.28-2.65.76A5.91,5.91,0,0,1,349.73,243.72Zm9.28.91c-3.72.25-7.13.52-7.61.61-.77.14-1.38-.08-1-.38s2.87-.47,8.45-.82c3.22-.21,6.71-.48,7.8-.61,2.22-.26,3.38-.22,3.36.13S367.62,244.06,359,244.63Zm12.9-.41c-1.06,0-.1-.49,2-1s2.69-.5,2.68-.13S372.84,244.25,371.91,244.22Zm4.71-3c-.15.38-6.15,2.24-6.41,2s-.16-.24-.09-.3,1.42-.51,3-1C376.34,240.85,376.78,240.77,376.62,241.21Zm.67,1.83c-.63,0,0-.54,1.64-1.43,2-1,2.18-1.11,2.16-.67A12.92,12.92,0,0,1,377.29,243Zm3.88-4.14a11.63,11.63,0,0,1-3.06,1.62c-.61,0-.09-.52,1.38-1.31S381.75,238.26,381.17,238.9Zm-1.45-2.49c-.35,0-.35-.06-.05-.35a22.21,22.21,0,0,1,2.25-1.41c2-1.17,2.26-1.24,2.24-.8S380.27,236.43,379.72,236.41Zm3.51-.09c-.55,0-.34-.41.47-.89s1.11-.54,1.1-.23S383.62,236.33,383.23,236.32Z" transform="translate(-251.85 -204.17)"/><path class="cls-4" d="M301.93,216.35c2.24-.25,2.43-.37,3.83-2.52,1.51-2.31,1.57-2.39,1.79-2.25s-.59,1.76-1.61,3.14c-.77,1-.77,1.06-.18.92s2.73-2.23,3.36-3.37a18.16,18.16,0,0,0,1.34-4c0-.33-.5-.17-1.47.45a12.2,12.2,0,0,0-3.83,3.87c-1.16,1.9-2,2.77-2.46,2.57s-1.14-1.4-1.52-3.17c-.33-1.5-2.16-6.12-2.22-5.59,0,.12.48,2,1.1,4.1,1.27,4.35,1.33,5.44.33,5.52a8.93,8.93,0,0,1-2.37-.63,5.94,5.94,0,0,0-4.54-.24c-.58.21-.57.22.21.42.43.11,2,.39,3.52.61A15.54,15.54,0,0,0,301.93,216.35Z" transform="translate(-251.85 -204.17)"/><path class="cls-4" d="M293.66,235c-.21-.23-.52-.06-1.46.81l-1.19,1.1.38.79.39.79,1.28-1.36a8.51,8.51,0,0,1,1.47-1.36c.46,0,.12.61-1.15,2s-1.56,1.92-1.17,2.19a7.63,7.63,0,0,0,1.91-1.31c1.65-1.34,2.2-1.65,2.18-1.23a14.66,14.66,0,0,1-1.95,1.85c-1.76,1.49-1.93,1.72-1.81,2.29s.14.63,2.32-1.13c2-1.58,2.8-2,2.78-1.57a19,19,0,0,1-2.38,2.06c-2.26,1.78-2.8,2.48-2.33,3a16,16,0,0,0,3-2.4,13.82,13.82,0,0,1,3.1-2.39c.14.1-1,1.33-2.8,3-2.86,2.65-3,2.86-3.07,3.73l0,.93,3.44-3.17c1.88-1.73,3.5-3.16,3.59-3.16.61,0-.27,1-3.5,3.94a20.78,20.78,0,0,0-3.36,3.4c.63.24,4.22-2.48,7.06-5.34,2-2,2.56-2.44,2.54-1.87,0,.36-4.12,4.37-5.68,5.54a8.62,8.62,0,0,0-1.24,1,6.9,6.9,0,0,0,1.34-.26c1.14-.28,1.59-.61,4.18-3,1.61-1.49,3.25-3.07,3.68-3.54.9-1,1.51-.89.72.12-.29.37-1.71,1.82-3.18,3.23a35,35,0,0,0-2.53,2.55c.8,0,2.19-1,5.71-4.15,2.26-2,4.19-3.73,4.3-3.77s.21.08.2.27a29.71,29.71,0,0,1-3.62,3.59c-2,1.8-3.55,3.25-3.48,3.26s.7-.14,1.39-.31c1.12-.28,1.51-.57,4-3,1.51-1.49,3.2-3.2,3.75-3.79.93-1,1.53-1.32,1.51-.85a41.46,41.46,0,0,1-4.84,5c-2,1.92-2,2-1.24,1.83,1-.16,1.14-.25,4.38-3.58a28.63,28.63,0,0,1,2.88-2.74c.5,0,0,.7-2.28,3a15.3,15.3,0,0,0-2.25,2.55,23.69,23.69,0,0,0,3.23-.79l3-.86,2.7-4.3c1.48-2.38,2.73-4.4,2.78-4.53s.16-.15.34,0-.48,1.43-2.34,4.39c-1.44,2.29-2.61,4.18-2.61,4.22a2.19,2.19,0,0,0,.85-.17c.79-.24,1-.51,2.58-3.32s2.19-3.64,2.16-2.84a23.21,23.21,0,0,1-1.53,3l-1.53,2.68,1-.12a6.38,6.38,0,0,0,1-.17l1.6-2.39,1.55-2.35-.17-2.8c-.48-7.72-3.34-13.79-7.8-16.57a4.57,4.57,0,0,0-4.2-.53l-.7.19.16,2.05c.18,2.32.65,3.65.74,2s.41-3.35.65-3.34a6.65,6.65,0,0,1,.06,2.61,10.79,10.79,0,0,0,.12,3.43l.28.82.22-.69c.11-.37.4-1.56.62-2.62a13.18,13.18,0,0,1,.54-2c.43-.38.4.53-.1,2.69-.6,2.64-.77,5-.39,5.39.15.16.58-.81,1.32-3,.6-1.79,1.14-3.3,1.2-3.35s.2,0,.33,0-.9,3.67-1.95,6.3a6.48,6.48,0,0,0-.43,1.84l0,.83.46-.51a44.25,44.25,0,0,0,2.86-5.78c.19-.48.64-.53.63-.07a38.44,38.44,0,0,1-2.68,5.83,17.38,17.38,0,0,0-1,1.88.68.68,0,0,1-.72.37c-.63,0-.82-.49-1.69-4.19a16.27,16.27,0,0,0-2.37-5.76c-1-1.54-2.28-2-5.64-2.11a22.5,22.5,0,0,0-3.72.17,21.25,21.25,0,0,0-5.89,2.71c-.81.71-1.71,3.51-1.79,5.58s.35,5.9.75,6.52.32.59-.05.95A.94.94,0,0,1,293.66,235Zm26.86-5.38c.37,0,.22.48-.8,2.45-1.34,2.59-2.7,4.61-3.11,4.59s-.41-.09.33-1.08a38.46,38.46,0,0,0,2-3.41A12.41,12.41,0,0,1,320.52,229.62Zm-2.54.74c1.85-3,2.42-3.76,2.4-3a57.26,57.26,0,0,1-4.1,6.79C315.5,234.7,316,233.57,318,230.36Zm1.88,3.46c1.44-2.36,2-3,2-2.24a82,82,0,0,1-6,9.34c-1,1.17-1.59,1.59-1.82,1.34-.06-.06.34-.61.87-1.19A54.55,54.55,0,0,0,319.86,233.82Zm-8.08,0c.14-.22.34-.34.46-.26s-.45,1.66-1.49,3.36c-.66,1.08-1,1.35-1,.74A26,26,0,0,1,311.78,233.84Zm-.38-2.59c.34.37-2.78,6.71-3.28,6.69s-.27-.31,1-2.76c.68-1.3,1.42-2.77,1.64-3.27S311.25,231.09,311.4,231.25Zm-.55-3c.32.34-2.33,6-3.27,7-.77.8-.7.06.12-1.3.47-.78,1.26-2.31,1.77-3.45s1-2.14,1.06-2.25S310.73,228.11,310.85,228.24Zm-3.5,2.06a23.85,23.85,0,0,0,1.16-2.62c.53-1.4,1-2,1-1.21,0,1.11-2.06,5.41-2.53,5.39S306.71,231.46,307.35,230.3Z" transform="translate(-251.85 -204.17)"/><path class="cls-4" d="M291.53,234.84a3.25,3.25,0,0,0-1,1.21c0,.21.48-.1,1.2-.75,1.18-1.07,1.21-1.13,1.1-2.15-.18-1.7-.26-1.71-2-.27-1.56,1.27-1.62,1.35-1.26,1.79s.4.43,1.31-.33,1.62-1,1.6-.55A4.63,4.63,0,0,1,291.53,234.84Z" transform="translate(-251.85 -204.17)"/><path class="cls-1" d="M387.05,234.41a5.22,5.22,0,0,0-2.47-3,9.32,9.32,0,0,1-2.08-2.26,8.92,8.92,0,0,0-1.8-2.07c-.86-.62-2.81-1.27-3.16-1.07-.11.06-.36-.38-.56-1a6.15,6.15,0,0,0-2.64-3.28,5.1,5.1,0,0,0-2.9-.61c-2.33-.07-3.79.33-6.64,1.85-1.85,1-2,1-3.56,1-.89-.05-2.57-.21-3.72-.36-4-.51-5.81.51-10.78,6.18l-2.93,3.34-1.45-.76c-3.46-1.79-8.81-1.27-13.86,1.34l-1.57.81v-2.93A18.62,18.62,0,0,0,324,220.8a19.87,19.87,0,0,0-5.82-6,7.06,7.06,0,0,0-7.68.53c-2.62,1.68-2.85,1.72-1.55.25,2.24-2.54,3.6-6.48,2.9-8.36-.49-1.31-1.42-1.27-3.75.15a12.35,12.35,0,0,0-4.31,4.17,3.33,3.33,0,0,1-.7.95,4.78,4.78,0,0,1-.47-1.45,27,27,0,0,0-1.31-3.66c-1.35-3.07-2.26-3.77-3.57-2.7-1,.83-1,1.54.19,5.58a22.3,22.3,0,0,1,.92,3.68,3.86,3.86,0,0,1-.82-.28,10.27,10.27,0,0,0-4.89-.09c-1.52.44-2.23,1.14-2.17,2.17s.68,1.36,3.79,1.91c1.34.23,2.81.5,3.25.59l.81.16-.59.28a2.71,2.71,0,0,1-1.11.28.89.89,0,0,0-.65.22,10.88,10.88,0,0,1-3.14.11c-3.43-.14-4.37.08-6.72,1.54-2.85,1.76-3.31,2.7-3.31,6.66v2.77l-1.87-.08a23.43,23.43,0,0,0-2.78,0l-.89.11.85-1c1.91-2.31,2.49-5.9,1-6.48s-5.32,2.18-6.66,4.59c-.54.95-.65,1-.77.61A6.2,6.2,0,0,0,271,226.4a6.81,6.81,0,0,0-4.91-2c-1.83-.07-2.57.25-2.7,1.19-.08.64.15,1,2.23,3.11l2.31,2.39-2.57-.08c-3-.09-4.63.32-6.59,1.67-3.35,2.32-6.38,7.88-6.82,12.5a35.49,35.49,0,0,0,.6,9.91c1.48,6,5.66,9.6,11.33,9.83,2,.08,2.05.1,2.32.73a3,3,0,0,0,1.18,1.15c.84.46,1.3.51,6.12.66,6.17.19,7.49.15,28.23-.67,6.22-.25,15.77-1,19.06-1.55a19.82,19.82,0,0,0,8.37-3.26c1-.75,1.25-.87,1.58-.66a37.46,37.46,0,0,0,6,2,21.86,21.86,0,0,0,7.65.27,18.12,18.12,0,0,0,8.2-3.81l1.57-1.42,1.39.5a34.17,34.17,0,0,0,7.2,1.66,4.18,4.18,0,0,0,3.7-1.43c1.65-1.78,4-2,6.34-.62a9.49,9.49,0,0,0,5.5,1.65,6.58,6.58,0,0,0,5.72-4.48,9.4,9.4,0,0,1,1.64-2.6,4.43,4.43,0,0,0,1.45-4.19,6.19,6.19,0,0,0-2.58-4.07l-1.21-.91,1.21-1.25C386.75,240.36,387.82,236.85,387.05,234.41Zm-35.2-7.23c2.15-1.81,3-2.08,5.71-1.74,4.85.6,5.14.58,8-.83a31.26,31.26,0,0,1,3.54-1.52,6.84,6.84,0,0,1,4.53.31,3.19,3.19,0,0,1,1.34,1.45c.55,1.23.53,1.33-.32,1.47a16,16,0,0,0-2.57,1c-1.18.53-1.89.74-1.93.57s-.41,0-.93.33a7.29,7.29,0,0,1-4.93,1.24,12.36,12.36,0,0,1-2.2-.55c-1.23-.49-3.32-.68-3.46-.31-.08.18.12.28.56.3a13.24,13.24,0,0,1,2.37.55c1.85.58,4.82.82,5.57.45,1-.5.58,0-.68.76-1.73,1-2.78,1-5-.08-3.39-1.68-4.59-1.3-12.39,4l-4.89,3.3,1.75-1.67c1.61-1.53,2.07-2.16,1.59-2.18a14.17,14.17,0,0,0-2,1.68,93.35,93.35,0,0,1-8,6.24,21.79,21.79,0,0,1,2.09-1.93,45.16,45.16,0,0,0,3.85-3.79A116.17,116.17,0,0,1,351.85,227.18Zm-25,9.95a6.88,6.88,0,0,1,3.22-2.34,21.78,21.78,0,0,1,3.84-1.38,16.22,16.22,0,0,1,7,.16c1.86.64,1.88.69,1,1.88a10.73,10.73,0,0,1-.87,1,2.51,2.51,0,0,1,.29-.8c.44-1,.45-1,.08-1-.15,0-.6.69-1,1.56a7.89,7.89,0,0,1-1.39,2.16l-.67.59.6-1.95c.56-1.81.6-2.21.2-2.22a11.36,11.36,0,0,0-.92,2.46,7.92,7.92,0,0,1-1.36,3.07,2.45,2.45,0,0,1-.78.61,10.35,10.35,0,0,1,.73-2.47C338,235,338,235,337.66,235c-.2,0-.71,1.14-1.48,3.37-.94,2.7-1.32,3.49-1.89,4a2.77,2.77,0,0,1-.77.53s.53-1.72,1.25-3.71c1.52-4.17,1.72-4.9,1.39-4.91s-1.57,3.34-3,7.6c-.62,1.79-.74,2-1.25,2-.3,0-.56-.1-.55-.19s.55-2.08,1.2-4.42c1.11-4,1.27-4.94.74-4.45a41.38,41.38,0,0,0-1.45,4.65c-1.21,4.36-1.52,5-2.32,5-.2,0-.26-.19-.16-.54a49.64,49.64,0,0,0,1.38-7.83c-.32-.34-.39-.11-1.12,3.55a17.77,17.77,0,0,1-.86,3.4c-.5,0-.65-1.16-.44-3.32.19-1.89.17-2.26-.11-2.27s-.35.27-.39,1.08a16.81,16.81,0,0,1-.26,2.09c-.18.9-.24,1-.6.68s-.35-.48-.09-1.68c.21-1,.23-1.43.06-1.61s-.24-.21-.26-.15-.17.72-.35,1.48c-.31,1.34-.34,1.38-1.06,1.42-.91.06-.94-.2-.15-1.07a2.54,2.54,0,0,0,.62-.9A8,8,0,0,1,326.81,237.13Zm7.33,16.07c.13,1.44.1,1.62-.32,1.82-.25.13-.47.2-.5.16-.18-.31-2-9.73-1.89-9.87a.45.45,0,0,1,.46-.1c.22,0,.65,1.2,1.22,3.24A35.35,35.35,0,0,1,334.14,253.2ZM311,217.3l.9-.56.13.53a6.68,6.68,0,0,1,.12,1.27v.74l-1-.63a6.33,6.33,0,0,1-1-.71A4.61,4.61,0,0,1,311,217.3Zm-13.76-1.13c-1.5-.22-3.09-.5-3.52-.61-.78-.2-.79-.21-.21-.42a5.94,5.94,0,0,1,4.54.24,8.93,8.93,0,0,0,2.37.63c1-.08.94-1.17-.33-5.52-.62-2.13-1.12-4-1.1-4.1.06-.53,1.89,4.09,2.22,5.59.38,1.77.93,2.92,1.52,3.17s1.3-.67,2.46-2.57a12.2,12.2,0,0,1,3.83-3.87c1-.62,1.49-.78,1.47-.45a18.16,18.16,0,0,1-1.34,4c-.63,1.14-2.72,3.23-3.36,3.37s-.59.12.18-.92c1-1.38,1.84-3,1.61-3.14s-.28-.06-1.79,2.25c-1.4,2.15-1.59,2.27-3.83,2.52A15.54,15.54,0,0,1,297.21,216.17ZM295.14,234c-.4-.62-.83-4.35-.75-6.52s1-4.87,1.79-5.58a21.25,21.25,0,0,1,5.89-2.71,22.5,22.5,0,0,1,3.72-.17c3.36.1,4.6.57,5.64,2.11a16.27,16.27,0,0,1,2.37,5.76c.87,3.7,1.06,4.17,1.69,4.19a.68.68,0,0,0,.72-.37,17.38,17.38,0,0,1,1-1.88,38.44,38.44,0,0,0,2.68-5.83c0-.46-.44-.41-.63.07a44.25,44.25,0,0,1-2.86,5.78l-.46.51,0-.83a6.48,6.48,0,0,1,.43-1.84c1.05-2.63,2.15-6.16,1.95-6.3s-.27-.11-.33,0-.6,1.56-1.2,3.35c-.74,2.2-1.17,3.17-1.32,3-.38-.41-.21-2.75.39-5.39.5-2.16.53-3.07.1-2.69a13.18,13.18,0,0,0-.54,2c-.22,1.06-.51,2.25-.62,2.62l-.22.69-.28-.82a10.79,10.79,0,0,1-.12-3.43,6.65,6.65,0,0,0-.06-2.61c-.24,0-.58,1.74-.65,3.34s-.56.27-.74-2l-.16-2.05.7-.19a4.57,4.57,0,0,1,4.2.53c4.46,2.78,7.32,8.85,7.8,16.57l.17,2.8-1.55,2.35-1.6,2.39a6.38,6.38,0,0,1-1,.17l-1,.12,1.53-2.68a23.21,23.21,0,0,0,1.53-3c0-.8-.56,0-2.16,2.84s-1.79,3.08-2.58,3.32a2.19,2.19,0,0,1-.85.17s1.17-1.93,2.61-4.22c1.86-3,2.53-4.21,2.34-4.39s-.28-.19-.34,0-1.3,2.15-2.78,4.53l-2.7,4.3-3,.86a23.69,23.69,0,0,1-3.23.79,15.3,15.3,0,0,1,2.25-2.55c2.27-2.3,2.78-3,2.28-3a28.63,28.63,0,0,0-2.88,2.74c-3.24,3.33-3.36,3.42-4.38,3.58-.8.13-.77.09,1.24-1.83a41.46,41.46,0,0,0,4.84-5c0-.47-.58-.14-1.51.85-.55.59-2.24,2.3-3.75,3.79-2.47,2.46-2.86,2.75-4,3-.69.17-1.31.31-1.39.31s1.48-1.46,3.48-3.26a29.71,29.71,0,0,0,3.62-3.59c0-.19-.08-.31-.2-.27s-2,1.73-4.3,3.77c-3.52,3.17-4.91,4.18-5.71,4.15a35,35,0,0,1,2.53-2.55c1.47-1.41,2.89-2.86,3.18-3.23.79-1,.18-1.11-.72-.12-.43.47-2.07,2.05-3.68,3.54-2.59,2.4-3,2.73-4.18,3a6.9,6.9,0,0,1-1.34.26,8.62,8.62,0,0,1,1.24-1c1.56-1.17,5.66-5.18,5.68-5.54,0-.57-.51-.18-2.54,1.87-2.84,2.86-6.43,5.58-7.06,5.34a20.78,20.78,0,0,1,3.36-3.4c3.23-2.93,4.11-3.92,3.5-3.94-.09,0-1.71,1.43-3.59,3.16l-3.44,3.17,0-.93c0-.87.21-1.08,3.07-3.73,1.79-1.64,2.94-2.87,2.8-3a13.82,13.82,0,0,0-3.1,2.39,16,16,0,0,1-3,2.4c-.47-.52.07-1.22,2.33-3a19,19,0,0,0,2.38-2.06c0-.48-.81,0-2.78,1.57-2.18,1.76-2.18,1.76-2.32,1.13s0-.8,1.81-2.29a14.66,14.66,0,0,0,1.95-1.85c0-.42-.53-.11-2.18,1.23a7.63,7.63,0,0,1-1.91,1.31c-.39-.27-.09-.83,1.17-2.19s1.61-2,1.15-2a8.51,8.51,0,0,0-1.47,1.36l-1.28,1.36-.39-.79-.38-.79,1.19-1.1c.94-.87,1.25-1,1.46-.81a.94.94,0,0,0,1.43-.09C295.46,234.55,295.46,234.46,295.14,234Zm-4.24.38c-.91.76-.94.77-1.31.33s-.3-.52,1.26-1.79c1.75-1.44,1.83-1.43,2,.27.11,1,.08,1.08-1.1,2.15-.72.65-1.21,1-1.2.75a3.25,3.25,0,0,1,1-1.21,4.63,4.63,0,0,0,1-1.05C292.52,233.36,291.77,233.62,290.9,234.34Zm-.89-3.17a14.62,14.62,0,0,1,2.22-1.76c.12,0,.19.35.16.77,0,.63-.31.95-1.78,2.11s-1.75,1.33-2.16,1S288.11,232.85,290,231.17Zm-2.89,1c-.37-.29-.17-.51,2.21-2.45a30.13,30.13,0,0,1,2.79-2.13c.09,0,.16.24.15.54a1.53,1.53,0,0,1-.75,1c-.4.27-1.47,1.14-2.36,1.91C287.71,232.28,287.47,232.41,287.12,232.13Zm-.87-9.11a7.45,7.45,0,0,1,3-1.76,5.5,5.5,0,0,1,2.92-.38,7.25,7.25,0,0,1,1.67.27,3.51,3.51,0,0,1-.37,1.36,27.2,27.2,0,0,0-.84,2.68c-.33,1.4-.39,1.48-2,2.7-.93.69-2.32,1.8-3.08,2.47-1,.89-1.45,1.15-1.63,1-.46-.5,2.31-3.24,4.86-4.81l1.17-.74c.06,0,0-.2-.13-.34-.31-.34-3.76,2-5.24,3.64-.63.67-1.21,1.15-1.31,1.09-.94-.64,2.38-4.4,5.25-5.95.86-.45,1.1-.86.55-.88s-2.43,1.27-4.14,2.9-1.74,1.61-1.82,1.06c-.12-.75,1.67-2.92,3.39-4.12a5.75,5.75,0,0,0,1.25-1c.37-1-2.63,1-3.79,2.52-.44.56-.83,1-.88.91C284.75,225.28,285.58,223.59,286.25,223Zm-12.38,5.8a12.12,12.12,0,0,1,3.67-3.86c1.15-.77,1.66-.9,1.64-.41-.07,1.72-2.24,4.92-3.89,5.76-.55.27-1,.43-1,.36a13.1,13.1,0,0,1,1.11-1.65c1.07-1.47,1.35-2.08.94-2.1a9.3,9.3,0,0,0-1.54,1.84C273.44,230.68,272.94,230.71,273.87,228.82Zm-7.21-1.48-1.57-1.54,1.05,0a8,8,0,0,1,1.86.29,4.54,4.54,0,0,1,3.27,3.84l.18,1.06-.69-.94c-1.41-1.91-1.84-2.37-2-2.14s.21.77.65,1.39l.81,1.15-1-.8C268.66,229.24,267.53,228.21,266.66,227.34ZM264.48,259c-2.24.87-3.24,1.45-2.73,1.58a7,7,0,0,0,2.1-.66,10.19,10.19,0,0,1,1.8-.68c.28.32-.51,1.12-1.89,1.91s-2,1.34-1.42,1.37a7.6,7.6,0,0,0,1.56-.77,4.42,4.42,0,0,1,1.43-.67c.06.07-.49.45-1.2.85s-1.32.86-1.33,1c0,.41.14.37,1.39-.34l1.14-.65.12.59c.21,1,0,1.1-2.29.87a7.34,7.34,0,0,1-3.71-1.13,10.15,10.15,0,0,1-4.34-4.47c-1.17-2.17-1.66-4.43-1.81-8.4-.2-5.44.69-8.79,3.32-12.47,3-4.25,5.73-5.23,11.63-4.23,3.23.54,4.77.54,6.45,0a15.69,15.69,0,0,1,6.63-.92,6.59,6.59,0,0,1,3.54.86,14.58,14.58,0,0,1,5.81,7.52A48.3,48.3,0,0,1,291.9,247a27,27,0,0,1-2.55-1.18c-2.64-1.33-2.84-1.4-2.86-1a23.87,23.87,0,0,0,5.09,2.74c.21,0,.28.17.19.47-.14.46-.69.61-.81.22s-7-3.6-7.3-3.38.44.61,4.56,2.56c2,1,2.28,1.14,1.85,1.31-.62.25-1.18,0-4.8-1.78-1.91-1-2.9-1.34-3.07-1.18s.1.4.87.78,2.08,1,3.24,1.61l2.12,1.07-1.07.32-1.07.32L284,248.59c-3-1.54-3.34-1.67-3.36-1.22,0,.21.07.38.19.38a21.71,21.71,0,0,1,2.45,1.17l2.24,1.15-.87.28c-.83.27-1,.22-3.74-1s-3.33-1.38-3-.85a16.21,16.21,0,0,0,2.55,1.32l2.43,1.11-.72.27c-.65.25-1,.17-3.82-.91s-3.79-1.28-3.2-.68a16.52,16.52,0,0,0,2.37,1c2.84,1.06,3,1.17,2,1.46-.69.21-1.1.12-3.61-.83s-3.46-1.15-2.9-.57a18.45,18.45,0,0,0,2.45,1.1l2.25.89-.73.26c-.66.24-1.05.16-3.83-.75s-3.78-1-3.2-.48a16.8,16.8,0,0,0,2.55.95,13.75,13.75,0,0,1,2.46.92c.06.1-.2.27-.58.38-.55.17-1.2,0-3.38-.69-2.89-.95-3.3-1-3.31-.69a6.31,6.31,0,0,0,2,.89c1.1.38,2.26.78,2.57.91l.58.22-.64.21c-.5.17-1.28.07-3.58-.47-3.15-.74-4-.84-4-.52s1.07.55,4,1.15a5,5,0,0,1,1.76.55c0,.23,0,.23-2.79.1s-5.15,0-5.28.39c-.08.18.76.25,3.22.25,3,0,3.29,0,3,.37a2,2,0,0,1-1.06.46c-3.32.49-6.25,1.15-6.26,1.42s-.2.39,2.61-.17C267.46,257.57,267.7,257.8,264.48,259Zm26.07,6.51c-.76,0-.92-1.75-.21-2.23a1.83,1.83,0,0,1,.43-.24s.06.59.11,1.26C291,265.44,290.93,265.56,290.55,265.55ZM330,257.43c-.15,1.76-.17,1.8-1.24,2.81s-5.11,3.11-5.38,2.82a4.69,4.69,0,0,1-.19-1.36c-.05-1,0-1.29.45-1.64l.5-.42-.05,1.3c0,1.07,0,1.31.33,1.33s.37-.21.29-1.63l-.1-1.64,1.56-1.95c1.92-2.41,2-2.52,1.61-2.54a15.51,15.51,0,0,0-2.46,2.59c-1.94,2.33-2.18,2.55-2.44,2.16-.56-.83-.75-.05-.48,2,.2,1.54.19,2,0,2.12-1.2.67-24.36,2.24-29.92,2l-1,0,0-1.4,0-1.41,2.94-2.71c2.65-2.45,3.36-3.28,2.81-3.3-.09,0-1.77,1.46-3.74,3.26-3.11,2.84-3.61,3.21-3.8,2.84s.16-.75,2.16-2.48c1.58-1.39,2.29-2.15,2.14-2.31s-1.45.84-3.92,3a20.84,20.84,0,0,0-3.47,3.44c.13.09.71-.23,1.32-.73l1.07-.88.11,1.3a3.77,3.77,0,0,1,0,1.44c-.32.28-7.67.42-13.56.25l-6.35-.19-.78-1a8.51,8.51,0,0,1-1.06-1.71,4.2,4.2,0,0,1,.27-3.54,12.69,12.69,0,0,1,3.61-2.41c.11,0,.19.31.18.68,0,1.09.19,2.14.45,2.07s.25-.74.27-1.67c0-1.6.25-1.61.52,0,.21,1.18.59.72.49-.58l-.09-1.26,2.59-1c3.43-1.29,9.79-3.39,13.57-4.48,3.35-1,22.23-5.59,22.35-5.48a4.73,4.73,0,0,1,.16,1c.06.63.2,1,.43,1s.31-.18.21-1.07,0-1.13.19-1.25c.55-.31.66-.21.94.92.35,1.4.94,1.74.73.42-.29-1.81-.33-1.76,2.06-2.39,4.48-1.18,6.42-1.52,8.21-1.46,1.57.06,1.86.13,2.48.69.92.83,1.42,2.47,2.42,8C330,254.79,330.16,256,330,257.43Zm0-10.07c-.23-1.07-.26-1.59-.08-1.65.47-.15.56.07.95,2.15.72,3.81,1.16,7.57.93,7.79s-.29-.06-.37-.57C331.19,253.42,330.35,248.85,330,247.36Zm10.07,14.79a17.68,17.68,0,0,1-5.91-1.24c-2.68-.92-3-1.09-2.91-1.5s.19-.84.29-1.32.29-.86.53-.85.31.14.19.41a10.54,10.54,0,0,0-.32,1c-.27,1.09.3.73.76-.48a2.34,2.34,0,0,1,1.1-1.46l.66-.32-.36,1.3a5.16,5.16,0,0,0-.25,1.5c.23.43.53-.12,1-1.75a6.41,6.41,0,0,1,.68-1.84.79.79,0,0,0,.23-.56c0-.37.85-.84,1.07-.6a13.48,13.48,0,0,1-.56,2.27c-.75,2.52-.75,2.5-.38,2.52.19,0,.49-.66.79-1.74.89-3.14.94-3.23,1.57-3.34s.72,0-.24,2.79-.89,2.57-.51,2.58c.19,0,.64-1,1.2-2.68a14.91,14.91,0,0,1,1.15-2.85,1.89,1.89,0,0,1,.85-.14l.61,0-1.16,2.86c-1.05,2.6-1.25,3.53-.63,3a17,17,0,0,0,1.11-2.49c1.35-3.4,1.42-3.54,1.77-3.52a.6.6,0,0,1,.46.2,17.46,17.46,0,0,1-.95,3.12c-1,2.67-1.12,3.53-.56,3a24.1,24.1,0,0,0,1.18-2.94c.54-1.51,1.05-2.82,1.13-2.91a1.07,1.07,0,0,1,.75,0l.61.19-1.41,3.26A23.1,23.1,0,0,0,342.3,261c.29.31.64-.28,1.92-3.29s1.39-3.16,1.83-3c.28.12.45.33.4.51a50.15,50.15,0,0,1-3.08,6.77C343.08,262.29,342.27,262.31,340.09,262.15Zm4.28-.34c2.87-6.63,3-6.86,3.81-6.3.17.13-.14,1-1,3a33.74,33.74,0,0,1-1.49,3.09C345.35,262,344.23,262.15,344.37,261.81Zm2.87-.55c-.35.17-.62.22-.62.11a52,52,0,0,1,2.55-5.54,1.24,1.24,0,0,1,.38.21c.2.14,0,.8-.7,2.56S347.74,261,347.24,261.26Zm2.14-1c-.24.12-.48.19-.51.15a19.36,19.36,0,0,1,1.63-3.86,1.08,1.08,0,0,1,.41.2C351.29,257,350,260,349.38,260.29Zm1.89-1.36c-.42.3-.42.29,0-.55a8.42,8.42,0,0,0,.4-1c0-.15.33-.09.63.11S352.13,258.31,351.27,258.93Zm32.05-12.74c1,.72,1.89,1.89,1.87,2.37a13.17,13.17,0,0,1-2.64,0c-2.71-.11-3.39,0-3.41.4,0,.15.88.21,2.67.17,2.73-.06,3.59.07,3.57.54,0,.2-.93.24-3.29.15s-3.31-.06-3.39.15.63.32,3.13.42a15.74,15.74,0,0,1,3.37.33c.06.11-.36.71-.91,1.31a11.55,11.55,0,0,0-1.72,2.7,7.36,7.36,0,0,1-1.79,2.58,2.84,2.84,0,0,1-2.57,1,6.86,6.86,0,0,1-4.54-1.48,5.39,5.39,0,0,0-3-1.05,6.14,6.14,0,0,0-5.26,1.52,4.9,4.9,0,0,1-1.64,1.09c-1.45.3-7.06-1.11-10.13-2.55a71.82,71.82,0,0,0-8.27-3.24c-2.18-.66-3.87-.68-7.47-.08-1.26.22-2.11.26-2.19.12a.32.32,0,0,1,.09-.4,18.34,18.34,0,0,1,4.05-.89c1.47-.15,1.87-.27,1.88-.54s-2.27-.16-4.4.34c-1.95.46-1.9.46-1.88.08,0-.57,6.44-1.64,10.28-1.73,2.85-.06,3.27-.13,2.78-.48-.7-.49-6.36-.06-11,.84-2.29.45-3,.3-1.45-.3a47.84,47.84,0,0,1,9.24-1.71c1.6-.12,5.62-.21,8.94-.22,14.23,0,21.67-.59,25.61-2C381.48,245,381.8,245.07,383.32,246.19Zm-1-3.84a16.11,16.11,0,0,1-6.74,2.56c-3.4.56-11.43.91-21.27.92a92.78,92.78,0,0,0-12.2.6c-.33.07-.53.06-.45,0a29.25,29.25,0,0,1,3.13-.81c3-.69,3.38-.81,3.13-1.09s-6.81,1.25-10.6,2.76a8.13,8.13,0,0,1-2.77.81c-.61-.66,8.77-4.2,17.74-6.7a71.65,71.65,0,0,1,9.57-2.07,15.16,15.16,0,0,0,3.72-.87c.15-.41-.74-.38-4.17.15A114.25,114.25,0,0,0,336.59,246a9.5,9.5,0,0,1-2.38.9,37.18,37.18,0,0,1,5.05-2.77c.4-.13.6-.77.24-.78a47.45,47.45,0,0,0-4.57,2.32c-.59.34-.93.42-1,.24s-.22-.29,1.32-1a101.91,101.91,0,0,0,12.91-7.81c9.4-6.31,10-6.55,12.83-5.13a6.89,6.89,0,0,0,4.47.84,17.84,17.84,0,0,0,2.94-1.64c4.22-2.77,6.65-3.75,9.15-3.69a4.62,4.62,0,0,1,1.75.39,6.14,6.14,0,0,1,1.38,1.32c1.46,1.87,2,2.67,1.93,2.76s-1.29.61-2.78,1.28c-1.8.8-2.62,1.28-2.47,1.44s1.17-.19,3.09-1l2.87-1.29.9.62a3.55,3.55,0,0,1,1.59,3.47A8.62,8.62,0,0,1,382.33,242.35Z" transform="translate(-251.85 -204.17)"/><path class="cls-1" d="M307,231.86c.47,0,2.49-4.28,2.53-5.39,0-.8-.46-.19-1,1.21a23.85,23.85,0,0,1-1.16,2.62C306.71,231.46,306.62,231.85,307,231.86Z" transform="translate(-251.85 -204.17)"/><path class="cls-1" d="M316.28,234.11a57.26,57.26,0,0,0,4.1-6.79c0-.72-.55,0-2.4,3C316,233.57,315.5,234.7,316.28,234.11Z" transform="translate(-251.85 -204.17)"/><path class="cls-1" d="M307.7,233.91c-.82,1.36-.89,2.1-.12,1.3.94-1,3.59-6.63,3.27-7-.12-.13-.25-.14-.32,0s-.54,1.11-1.06,2.25S308.17,233.13,307.7,233.91Z" transform="translate(-251.85 -204.17)"/><path class="cls-1" d="M316.94,235.58c-.74,1-.76,1.06-.33,1.08s1.77-2,3.11-4.59c1-2,1.17-2.43.8-2.45a12.41,12.41,0,0,0-1.58,2.55A38.46,38.46,0,0,1,316.94,235.58Z" transform="translate(-251.85 -204.17)"/><path class="cls-1" d="M314,242.26c.23.25.8-.17,1.82-1.34a82,82,0,0,0,6-9.34c0-.75-.53-.12-2,2.24a54.55,54.55,0,0,1-5,7.25C314.36,241.65,314,242.2,314,242.26Z" transform="translate(-251.85 -204.17)"/><path class="cls-1" d="M309.13,235.18c-1.28,2.45-1.39,2.75-1,2.76s3.62-6.32,3.28-6.69c-.15-.16-.35.05-.63.66S309.81,233.88,309.13,235.18Z" transform="translate(-251.85 -204.17)"/><path class="cls-1" d="M310.75,236.94c1-1.7,1.71-3.21,1.49-3.36s-.32,0-.46.26a26,26,0,0,0-2,3.84C309.73,238.29,310.09,238,310.75,236.94Z" transform="translate(-251.85 -204.17)"/><path class="cls-1" d="M371.85,224.93c.33-.14.62-.34.62-.44,0-.31-.78-.27-1.28.07S371.07,225.24,371.85,224.93Z" transform="translate(-251.85 -204.17)"/><path class="cls-1" d="M372.88,225.69c0-.32-.45-.28-1.28.11s-.89.43-.73.72S372.87,226.06,372.88,225.69Z" transform="translate(-251.85 -204.17)"/><path class="cls-1" d="M369.67,226.14c0-.41-.36-.33-1.62.36-1.62.89-2,1.23-1.4,1.25S369.67,226.45,369.67,226.14Z" transform="translate(-251.85 -204.17)"/><path class="cls-1" d="M356.35,227.09c0-.36-.54-.23-1.8.42s-1.62,1.09-1,1.12A8.73,8.73,0,0,0,356.35,227.09Z" transform="translate(-251.85 -204.17)"/><path class="cls-1" d="M365.46,228.55c1.07-.22.46-.52-1.52-.74-1.07-.11-2.25-.29-2.67-.39s-.75-.08-.76.05C360.49,228,364.24,228.8,365.46,228.55Z" transform="translate(-251.85 -204.17)"/><path class="cls-1" d="M353.69,230.49c.46,0,3.53-1.76,3.4-2s-.34-.28-2,.67C353.54,230,353.08,230.47,353.69,230.49Z" transform="translate(-251.85 -204.17)"/><path class="cls-1" d="M350.54,230.8c1.77-1.28,2.22-1.74,1.74-1.76a13.48,13.48,0,0,0-2.52,1.54c-1.22.85-2.14,1.65-2.06,1.78S348.51,232.27,350.54,230.8Z" transform="translate(-251.85 -204.17)"/><path class="cls-1" d="M350.3,231.81a5.91,5.91,0,0,0-1.6,1.45c0,.46.27.34,1.51-.6.67-.51,1.4-1,1.66-1.22s.39-.39.25-.55S351.36,231,350.3,231.81Z" transform="translate(-251.85 -204.17)"/><path class="cls-1" d="M377.71,233.31a16.61,16.61,0,0,0,3.93-1.35c.65-.56-.12-.5-2.05.16S376.92,233.28,377.71,233.31Z" transform="translate(-251.85 -204.17)"/><path class="cls-1" d="M374.66,233.4c0-.39-.8-.19-4,1-3,1.07-3.82,1.52-2.91,1.56A43,43,0,0,0,374.66,233.4Z" transform="translate(-251.85 -204.17)"/><path class="cls-1" d="M384.16,233.85c0-.44-.2-.37-2.24.8a22.21,22.21,0,0,0-2.25,1.41c-.3.29-.3.34.05.35C380.27,236.43,384.15,234.2,384.16,233.85Z" transform="translate(-251.85 -204.17)"/><path class="cls-1" d="M370.58,236.91c0,.16,0,.29.1.3a46.93,46.93,0,0,0,5.56-2.61c0-.4-.92-.13-3.24.93A8.3,8.3,0,0,0,370.58,236.91Z" transform="translate(-251.85 -204.17)"/><path class="cls-1" d="M383.7,235.43c-.81.48-1,.87-.47.89.39,0,1.56-.82,1.57-1.12S384.53,235,383.7,235.43Z" transform="translate(-251.85 -204.17)"/><path class="cls-1" d="M379.49,239.21c-1.47.79-2,1.29-1.38,1.31a11.63,11.63,0,0,0,3.06-1.62C381.75,238.26,381,238.4,379.49,239.21Z" transform="translate(-251.85 -204.17)"/><path class="cls-1" d="M346.71,239c.58,0,3.2-1.26,3.07-1.5s-.26-.3-1.92.45C346.4,238.64,346,239,346.71,239Z" transform="translate(-251.85 -204.17)"/><path class="cls-1" d="M354.39,238.34c-3.11.63-13.75,4.4-13.77,4.88s.57.21,4.7-1.34c2.26-.86,5.47-1.9,7.11-2.32s3-.88,3-1.06S355.21,238.17,354.39,238.34Z" transform="translate(-251.85 -204.17)"/><path class="cls-1" d="M370.51,241.49c3.51-.8,4.18-1,4-1.34s-.19-.28-1.52.09c-.58.16-2.43.59-4.09.94a12.31,12.31,0,0,0-3.14.93C365.62,242.5,366.72,242.35,370.51,241.49Z" transform="translate(-251.85 -204.17)"/><path class="cls-1" d="M378.93,241.61c-1.68.89-2.27,1.41-1.64,1.43a12.92,12.92,0,0,0,3.8-2.1C381.11,240.5,380.9,240.57,378.93,241.61Z" transform="translate(-251.85 -204.17)"/><path class="cls-1" d="M342.29,242.1a19.2,19.2,0,0,0,4.74-2.32c0-.42-.11-.38-2.66.79C342.34,241.51,341.57,242.07,342.29,242.1Z" transform="translate(-251.85 -204.17)"/><path class="cls-1" d="M373.16,241.87c-1.62.51-3,1-3,1s0,.17.09.3,6.26-1.6,6.41-2S376.34,240.85,373.16,241.87Z" transform="translate(-251.85 -204.17)"/><path class="cls-1" d="M361.6,243.15a6.32,6.32,0,0,0,2.42-.59c.13-.35-.25-.35-3.25,0-1.56.18-2.27.36-2.28.58C358.48,243.53,358.73,243.53,361.6,243.15Z" transform="translate(-251.85 -204.17)"/><path class="cls-1" d="M373.94,243.26c-2.13.47-3.09.93-2,1s4.7-.85,4.71-1.09S376.12,242.78,373.94,243.26Z" transform="translate(-251.85 -204.17)"/><path class="cls-1" d="M354.33,242.79c0-.32-1.06-.27-2.86.14s-2,.51-1.74.79a5.91,5.91,0,0,0,1.95-.17C354.18,243.07,354.32,243,354.33,242.79Z" transform="translate(-251.85 -204.17)"/><path class="cls-1" d="M366.6,243.43c-1.09.13-4.58.4-7.8.61-5.58.35-8.22.61-8.45.82s.28.52,1,.38c.48-.09,3.89-.36,7.61-.61,8.61-.57,10.94-.8,10.95-1.07S368.82,243.17,366.6,243.43Z" transform="translate(-251.85 -204.17)"/><path class="cls-1" d="M282.83,237c.72-2.64.78-3.07.46-3.19-.15-.06-.37.41-.57,1.24s-.55,2-.85,2.9a4.85,4.85,0,0,0-.39,1.71C281.77,239.93,282.31,238.88,282.83,237Z" transform="translate(-251.85 -204.17)"/><path class="cls-1" d="M265.13,233.48c0-.43-.24-.37-1.26.27-.6.37-.83.65-.68.81S265.11,233.92,265.13,233.48Z" transform="translate(-251.85 -204.17)"/><path class="cls-1" d="M263.88,235.88c0,.26.19.22.87-.17l1.31-.72c.24-.13.42-.31.42-.41,0-.36-.83-.16-1.71.4C264.29,235.28,263.88,235.69,263.88,235.88Z" transform="translate(-251.85 -204.17)"/><path class="cls-1" d="M281.94,242.69c.53,0,2.76-5.18,2.81-6.57,0-.85-.41-.57-.71.46a22,22,0,0,1-1.71,4.55C281.69,242.29,281.59,242.68,281.94,242.69Z" transform="translate(-251.85 -204.17)"/><path class="cls-1" d="M257.69,239.37a18.22,18.22,0,0,1,2.24-2.55,16.53,16.53,0,0,0,1.66-1.74c0-.45-.75,0-1.83,1a19.08,19.08,0,0,0-3.25,4C256.49,240.63,257.17,240.21,257.69,239.37Z" transform="translate(-251.85 -204.17)"/><path class="cls-1" d="M257.52,242.15a18.45,18.45,0,0,1,3.07-3.91c1.64-1.63,2-2.13,1.4-2.15a10.08,10.08,0,0,0-1.55,1.39c-.76.76-1.72,1.8-2.11,2.29a21.25,21.25,0,0,0-2.43,4.17C255.87,244.63,256.45,244,257.52,242.15Z" transform="translate(-251.85 -204.17)"/><path class="cls-1" d="M285.87,242.85a7.17,7.17,0,0,0,1.34-2.08c1.37-2.66,1.54-3.14,1.15-3.14a8.25,8.25,0,0,0-1.51,2.43C285.56,242.68,285.5,242.84,285.87,242.85Z" transform="translate(-251.85 -204.17)"/><path class="cls-1" d="M283.39,244a42.12,42.12,0,0,0,2.91-5.89c0-.83-.46-.2-1.47,1.87-.58,1.2-1.32,2.64-1.64,3.16C282.6,244.13,282.75,244.8,283.39,244Z" transform="translate(-251.85 -204.17)"/><path class="cls-1" d="M288,241.67c.14.09.28.12.32.07a16.81,16.81,0,0,0,1.4-2.68c0-.62-.53-.11-1.21,1.11C288.05,241,287.87,241.57,288,241.67Z" transform="translate(-251.85 -204.17)"/><path class="cls-1" d="M261.27,240.05c1.48-1.47,1.87-2.06,1.39-2.08a7,7,0,0,0-1.45,1.24c-3,3-4.15,4.73-5.33,7.8-.95,2.47-1.06,3-.71,3a10.45,10.45,0,0,0,1.16-2.53A19.27,19.27,0,0,1,261.27,240.05Z" transform="translate(-251.85 -204.17)"/><path class="cls-1" d="M261.39,242.68a16.14,16.14,0,0,0,1.6-2.16c0-.58-.59-.05-2.13,1.84a23.64,23.64,0,0,0-4.23,7.35c-.89,2.33-1.08,3.14-.77,3.26a9.1,9.1,0,0,0,1.17-2.51A24.46,24.46,0,0,1,261.39,242.68Z" transform="translate(-251.85 -204.17)"/><path class="cls-1" d="M277.7,245.31a15.07,15.07,0,0,0,1.95-3.41c0-.66-.53-.06-1.57,1.71S276.75,246.4,277.7,245.31Z" transform="translate(-251.85 -204.17)"/><path class="cls-1" d="M288.06,243.38c-.16.24,1.89,1.49,2.49,1.51s.18-.42-1-1.09S288.25,243.09,288.06,243.38Z" transform="translate(-251.85 -204.17)"/><path class="cls-1" d="M279.06,246a7.11,7.11,0,0,0,1.69-2.59c0-.65-.45-.25-1.19,1C278.73,245.77,278.62,246.12,279.06,246Z" transform="translate(-251.85 -204.17)"/><path class="cls-1" d="M259.54,248.55a38.42,38.42,0,0,1,3.57-5c.79-.94.18-1-.71,0a24.52,24.52,0,0,0-3.68,5.42,45.93,45.93,0,0,0-1.93,6.35c-.05.37,0,.71.13.76a11.09,11.09,0,0,0,1.13-3.11A33.65,33.65,0,0,1,259.54,248.55Z" transform="translate(-251.85 -204.17)"/><path class="cls-1" d="M262.91,247.26a17.58,17.58,0,0,0,1.53-2.14c.1-.64-.49-.18-1.76,1.39a19.4,19.4,0,0,0-3.78,7.09c-.93,3.17-1.15,4.6-.72,4.61.23,0,.38-.38.54-1.39a28.41,28.41,0,0,1,2.12-6.5A24.68,24.68,0,0,1,262.91,247.26Z" transform="translate(-251.85 -204.17)"/><path class="cls-1" d="M264.47,248.88c.74-.87,1-1.38.86-1.55s-.64.24-1.49,1.27a17.2,17.2,0,0,0-3.38,6.48c-1,3.14-1.08,3.88-.69,3.89.21,0,.44-.51.67-1.5a26,26,0,0,1,2.3-6.27A24.64,24.64,0,0,1,264.47,248.88Z" transform="translate(-251.85 -204.17)"/><path class="cls-1" d="M263.43,252.53c-.17.39-.19.7-.06.84s.47-.23.89-1a18.15,18.15,0,0,1,1.63-2.4,6.79,6.79,0,0,0,1-1.39c0-.35-.35-.29-.74.14A25.79,25.79,0,0,0,263.43,252.53Z" transform="translate(-251.85 -204.17)"/><path class="cls-1" d="M270,250.09a3.47,3.47,0,0,0,.88-.53c.45-.34.63-.62.49-.77s-.46-.06-.86.24C269.87,249.5,269.59,250.1,270,250.09Z" transform="translate(-251.85 -204.17)"/><path class="cls-1" d="M266.41,251.84c.13.13.65-.3,1.37-1.15s1.09-1.46,1-1.59-.39,0-.69.3C266.91,250.61,266.22,251.63,266.41,251.84Z" transform="translate(-251.85 -204.17)"/><path class="cls-1" d="M324.41,247.36c.18.86.42,1.46.6,1.47.36,0,.36,0,.12-1.39-.29-1.56-.62-2.34-1-2.36s-.3.12-.19.4A17.62,17.62,0,0,1,324.41,247.36Z" transform="translate(-251.85 -204.17)"/><path class="cls-1" d="M323.32,249.47c.27,0,.29-3.18,0-3.72-.15-.3-.2-.29-.35.05C322.73,246.37,323,249.47,323.32,249.47Z" transform="translate(-251.85 -204.17)"/><path class="cls-1" d="M296.17,250a3.85,3.85,0,0,0,.05,1.46c.29,1.78.35,2,.61,1.72s.17-.71.05-1.6C296.67,250.08,296.43,249.56,296.17,250Z" transform="translate(-251.85 -204.17)"/><path class="cls-1" d="M294.6,251c0,.9.16,1.72.41,1.73s.25-2.14-.09-2.27S294.61,250.58,294.6,251Z" transform="translate(-251.85 -204.17)"/><path class="cls-1" d="M323.56,254.39c-1.11,1.28-2.93,3.25-4.08,4.41-2,2-2.34,2.48-1.86,2.5s8.22-8.23,8.25-8.88S325.49,252.15,323.56,254.39Z" transform="translate(-251.85 -204.17)"/><path class="cls-1" d="M304.72,254.91c.16,0,.27-.45.25-1-.05-1.77-.2-2.42-.55-2.44s-.34.22-.26,1.32C304.29,254.59,304.4,255,304.72,254.91Z" transform="translate(-251.85 -204.17)"/><path class="cls-1" d="M316.7,257.85c1.13-1.26,1.51-1.56,1.74-1.36s.33.17.44-.11a1,1,0,0,0,.05-.67,1.31,1.31,0,0,1,.36-.85,2.33,2.33,0,0,0,.48-.83c0-.41-.44-.39-.62,0s-.48.19-.6-.84c-.07-.6-.23-.94-.45-.94a.34.34,0,0,0-.36.32,12.08,12.08,0,0,0,.19,1.51l.21,1.19L316.59,257c-2.23,2.51-4.58,4.76-4.81,4.6s-.18-.41-.16-.76.68-1.32,2.33-3.08c2.35-2.53,2.76-2.87,2.74-2.24,0,.21.08.37.19.38s.54-2.06.3-2.22a.76.76,0,0,1-.16-.57.42.42,0,0,0-.35-.47c-.29,0-.35.15-.26.71s-.08.93-1.76,2.76c-3,3.23-4.5,4.66-4.67,4.36s-.74-.05-.59.4c.08.23-.12.62-.52,1-.72.69-.65,1.15.11.72.54-.3.63-.18.7,1,0,.38.18.73.34.79s.3-.25.3-1.43c0-1.86.46-2.33.64-.65.16,1.44.27,1.73.7,1.75.28,0,.33-.18.26-.92s0-.93.21-.92S314.58,260.22,316.7,257.85Z" transform="translate(-251.85 -204.17)"/><path class="cls-1" d="M303.49,255.93c.37-.2,0-3.79-.42-3.8-.16,0-.2.59-.14,1.78C303,255.84,303.11,256.15,303.49,255.93Z" transform="translate(-251.85 -204.17)"/><path class="cls-1" d="M321.28,254.2a90.9,90.9,0,0,1-6.3,7c-.7.6-.81.92-.34.93s8.15-8.23,8.18-9C322.84,252.58,322.14,253.05,321.28,254.2Z" transform="translate(-251.85 -204.17)"/><path class="cls-1" d="M326.54,253.53a2,2,0,0,0-.66.62c-.28.33-1.78,2-3.33,3.6a15.92,15.92,0,0,0-2.67,3.25c.16.27,1-.52,4.68-4.5C326.68,254.21,327.12,253.56,326.54,253.53Z" transform="translate(-251.85 -204.17)"/><path class="cls-1" d="M307.33,254.46c.36-.41.54-.78.42-.86a31.32,31.32,0,0,0-4,3.58c-3.17,3.07-3.84,3.62-3.89,3.19s.4-1,1.67-2.18c1.54-1.49,2-2.16,1.42-2.16a12.55,12.55,0,0,0-1.72,1.56c-1.06,1.07-1.57,1.45-1.65,1.22-.21-.58-.62-.38-.59.3a1.91,1.91,0,0,1-.18.95c-.16.24-.25.19-.38-.21-.23-.7-.71-.4-.58.37.09.54-.09.78-1.19,1.62s-1.67,1.56-1.16,1.58a5.77,5.77,0,0,0,1.4-1c.65-.54,1.25-.92,1.32-.84s.26-.13.4-.45c.31-.71.63-.78.83-.18.09.28-.13.63-.74,1.13-.84.71-1.09,1.17-.65,1.19C298.23,263.3,306.11,255.82,307.33,254.46Z" transform="translate(-251.85 -204.17)"/><path class="cls-1" d="M283.73,255.06c-.18-1.49-.38-1.91-.69-1.46a10.64,10.64,0,0,0,.58,3.82C284,257.8,284,257.21,283.73,255.06Z" transform="translate(-251.85 -204.17)"/><path class="cls-1" d="M285.18,257.9c.36-.16.15-4.4-.22-4.41-.11,0-.22.71-.24,1.57C284.68,257,284.86,258.05,285.18,257.9Z" transform="translate(-251.85 -204.17)"/><path class="cls-1" d="M307.77,255.56s-1.07,1.09-2.27,2.41-2.79,2.95-3.53,3.62c-1.4,1.26-1.6,1.57-1,1.59s7.28-7,7-7.4C307.9,255.65,307.82,255.57,307.77,255.56Z" transform="translate(-251.85 -204.17)"/><path class="cls-1" d="M300.32,256.77c.66-1.13-.13-.7-2.32,1.28-1.25,1.13-3,2.65-3.94,3.39s-1.61,1.43-1.52,1.53.39,0,.7-.15A70.93,70.93,0,0,0,300.32,256.77Z" transform="translate(-251.85 -204.17)"/><path class="cls-1" d="M309.54,256.33a11.67,11.67,0,0,0-1.77,1.82,29.06,29.06,0,0,1-2.86,2.89c-1.29,1.09-1.46,1.31-1,1.33s1.89-1.13,3.8-3.23S310,256.35,309.54,256.33Z" transform="translate(-251.85 -204.17)"/><path class="cls-1" d="M311.69,257.56c-.07-.23-1,.45-2.82,2.13-1.64,1.49-2.63,2.54-2.48,2.64C306.74,262.56,311.82,258,311.69,257.56Z" transform="translate(-251.85 -204.17)"/><path class="cls-1" d="M287.89,260.57c-1.69,1.58-3.08,2.93-3.08,3,0,.5,1-.24,3.57-2.65,1.92-1.77,2.93-2.86,2.79-3S289.87,258.72,287.89,260.57Z" transform="translate(-251.85 -204.17)"/><path class="cls-1" d="M288.35,258a22.82,22.82,0,0,0-3.26,2.84c-1.68,1.63-3.08,3-3.08,3.1,0,.57,1-.21,3.5-2.62C288.49,258.39,288.67,258.17,288.35,258Z" transform="translate(-251.85 -204.17)"/><path class="cls-1" d="M285.31,258.62a24.35,24.35,0,0,0-2.53,2,14,14,0,0,1-2.33,1.8,9.44,9.44,0,0,1,1.09-1.65c1-1.36,1.36-2,1-2a12.49,12.49,0,0,0-1.6,1.24l-1.47,1.26-.31-.75a1.94,1.94,0,0,0-.47-.75,8.6,8.6,0,0,0-1.45,1.12c-.71.61-2,1.63-2.8,2.25-1,.75-1.42,1.22-1.27,1.38s.35.13.64-.09,1.08-.85,1.9-1.48c1.17-.92,1.49-1.07,1.59-.77.2.59.16.64-1.08,1.56a5,5,0,0,0-1.2,1.06c0,.37.62.16,1.45-.48.53-.4,1-.6,1.23-.5s.37,0,.38-.29c0-.46.45-1,.81-1,.11,0,.12.37,0,.81-.33,1.43.51,1,3.63-1.74C285.21,259.23,285.79,258.61,285.31,258.62ZM278.44,262c-.38.25-.43.21-.48-.35-.07-.81.51-1.17.75-.45A.6.6,0,0,1,278.44,262Zm1.55-.1c-.16.27-.34.41-.41.33s0-.3.19-.48C280.22,261.26,280.33,261.33,280,261.9Z" transform="translate(-251.85 -204.17)"/><path class="cls-1" d="M274.39,259.56c-.15-.16-.43,0-.82.34S272.1,261.17,271,262c-1.31,1-1.91,1.63-1.76,1.79s1-.37,2.47-1.55C274.36,260.17,274.67,259.86,274.39,259.56Z" transform="translate(-251.85 -204.17)"/><path class="cls-1" d="M276.7,260c.3-.71-.27-.45-1.76.79a38.8,38.8,0,0,1-3.15,2.34c-1.43.92-2,1.6-1.46,1.62S276.44,260.57,276.7,260Z" transform="translate(-251.85 -204.17)"/><path class="cls-1" d="M379.55,246.31c-.49,0-.77.19-.78.41s.18.33.74.26l1.87-.18c.6-.05,1.11-.2,1.11-.32S381.07,246.18,379.55,246.31Z" transform="translate(-251.85 -204.17)"/><path class="cls-1" d="M379,247.45c-1.28.11-.74.6.65.6,2.6,0,4.62-.15,4.63-.34S380.56,247.33,379,247.45Z" transform="translate(-251.85 -204.17)"/><path class="cls-1" d="M371.52,248.24c0-.19-.07-.32-.17-.31l-2.39.35a81.26,81.26,0,0,1-9.12.7,5.61,5.61,0,0,0-2.06.26c0,.34,4.12.41,7,.13C369.49,248.92,371.5,248.58,371.52,248.24Z" transform="translate(-251.85 -204.17)"/><path class="cls-1" d="M350.28,249.3c.59-.06,2.36-.05,3.94,0,2.38.09,2.86.06,2.88-.23s-.5-.4-5.86-.41c-1.67,0-2,.06-2,.37S349.37,249.39,350.28,249.3Z" transform="translate(-251.85 -204.17)"/><path class="cls-1" d="M372.79,249.66c.14-.37,0-.36-2.8.14-2.27.41-3.08.89-1.4.84C370,250.59,372.67,250,372.79,249.66Z" transform="translate(-251.85 -204.17)"/><path class="cls-1" d="M362.42,250.51c-1.07,0-1.44.11-1.45.36s.24.34,1,.35c1.34,0,2.37-.19,2.35-.46S364.23,250.48,362.42,250.51Z" transform="translate(-251.85 -204.17)"/><path class="cls-1" d="M354.14,250.46c-.08.13,0,.29.17.37a11.89,11.89,0,0,0,4.17-.07C358.57,250.43,354.35,250.15,354.14,250.46Z" transform="translate(-251.85 -204.17)"/><path class="cls-1" d="M350.52,250.9c0-.29-.54-.37-3.57-.49s-3.6-.09-3.61.2.54.37,3.58.49S350.51,251.19,350.52,250.9Z" transform="translate(-251.85 -204.17)"/><path class="cls-1" d="M376.22,252.51c0-.14-.89-.26-2.21-.32s-2.16,0-2.08.15a6,6,0,0,0,2.2.32C375.36,252.71,376.21,252.65,376.22,252.51Z" transform="translate(-251.85 -204.17)"/><path class="cls-1" d="M346.07,252c0,.27,1.12.56,2.35.61.62,0,.89-.07.83-.27S346.09,251.61,346.07,252Z" transform="translate(-251.85 -204.17)"/><path class="cls-1" d="M374.48,253.5a3,3,0,0,0-1.44,0c-.22.34.19.46,2.27.71,1.39.16,2,.15,2,0S376.63,253.77,374.48,253.5Z" transform="translate(-251.85 -204.17)"/><path class="cls-1" d="M350.73,253.22a.69.69,0,0,0-.65.1.23.23,0,0,0,.15.34,43.52,43.52,0,0,0,5.53,1.34C356.31,254.71,355.35,254.37,350.73,253.22Z" transform="translate(-251.85 -204.17)"/></svg>