<?xml version="1.0" standalone="no"?>
<!DOCTYPE svg PUBLIC "-//W3C//DTD SVG 20010904//EN"
 "http://www.w3.org/TR/2001/REC-SVG-20010904/DTD/svg10.dtd">
<svg version="1.0" xmlns="http://www.w3.org/2000/svg"
 width="72.000000pt" height="72.000000pt" viewBox="0 0 72.000000 72.000000"
 preserveAspectRatio="xMidYMid meet">

<g transform="translate(0.000000,72.000000) scale(0.100000,-0.100000)"
fill="#000000" stroke="none">
<path d="M274 711 c-101 -26 -194 -102 -241 -199 -24 -50 -28 -68 -28 -147 0
-76 4 -99 27 -147 34 -73 103 -142 176 -176 49 -23 70 -27 147 -27 76 0 99 4
146 26 79 37 133 90 171 167 30 60 33 75 33 157 0 77 -4 98 -27 147 -56 119
-169 196 -300 203 -40 2 -87 1 -104 -4z m19 -313 l66 -112 21 37 c20 34 26 37
67 37 l45 0 -31 -52 c-17 -29 -46 -79 -63 -110 -18 -32 -35 -58 -38 -58 -3 0
-41 62 -85 137 -44 75 -93 158 -108 185 l-29 48 45 0 45 0 65 -112z m277 105
c0 -5 -9 -23 -20 -40 l-20 -33 -84 0 -84 0 -21 36 c-12 19 -21 37 -21 40 0 2
56 4 125 4 69 0 125 -3 125 -7z"/>
</g>
</svg>
